<svg xmlns="http://www.w3.org/2000/svg" xmlns:xlink="http://www.w3.org/1999/xlink" width="500" zoomAndPan="magnify" viewBox="0 0 375 374.999991" height="500" preserveAspectRatio="xMidYMid meet" version="1.0"><defs><filter x="0%" y="0%" width="100%" height="100%" id="4faf4c36f9"><feColorMatrix values="0 0 0 0 1 0 0 0 0 1 0 0 0 0 1 0 0 0 1 0" color-interpolation-filters="sRGB"/></filter><g/><clipPath id="8863e6322b"><path d="M 48 90 L 199 90 L 199 222 L 48 222 Z M 48 90 " clip-rule="nonzero"/></clipPath><clipPath id="22c7e94bd9"><path d="M 88.609375 29.160156 L 286.382812 145.589844 L 168.429688 345.949219 L -29.34375 229.519531 Z M 88.609375 29.160156 " clip-rule="nonzero"/></clipPath><clipPath id="2d532ac89a"><path d="M 88.679688 28.742188 L 287.746094 145.933594 L 169.410156 346.9375 L -29.652344 229.746094 Z M 88.679688 28.742188 " clip-rule="nonzero"/></clipPath><clipPath id="89042d1942"><path d="M 72.335938 -32.269531 L 348.3125 130.199219 L 185.84375 406.175781 L -90.132812 243.707031 Z M 72.335938 -32.269531 " clip-rule="nonzero"/></clipPath><clipPath id="5f0f958556"><path d="M 77 125 L 171 125 L 171 210 L 77 210 Z M 77 125 " clip-rule="nonzero"/></clipPath><clipPath id="ac092ba90a"><path d="M 88.609375 29.160156 L 286.382812 145.589844 L 168.429688 345.949219 L -29.34375 229.519531 Z M 88.609375 29.160156 " clip-rule="nonzero"/></clipPath><clipPath id="ac0e10f4d3"><path d="M 88.679688 28.742188 L 287.746094 145.933594 L 169.410156 346.9375 L -29.652344 229.746094 Z M 88.679688 28.742188 " clip-rule="nonzero"/></clipPath><clipPath id="ef1c7136e7"><path d="M 72.335938 -32.269531 L 348.3125 130.199219 L 185.84375 406.175781 L -90.132812 243.707031 Z M 72.335938 -32.269531 " clip-rule="nonzero"/></clipPath><clipPath id="98e24fdfa4"><path d="M 79 128 L 171 128 L 171 210 L 79 210 Z M 79 128 " clip-rule="nonzero"/></clipPath><clipPath id="5ce72cf269"><path d="M 88.609375 29.160156 L 286.382812 145.589844 L 168.429688 345.949219 L -29.34375 229.519531 Z M 88.609375 29.160156 " clip-rule="nonzero"/></clipPath><clipPath id="cc9590ce8b"><path d="M 88.679688 28.742188 L 287.746094 145.933594 L 169.410156 346.9375 L -29.652344 229.746094 Z M 88.679688 28.742188 " clip-rule="nonzero"/></clipPath><clipPath id="5ba5ab9c0a"><path d="M 72.335938 -32.269531 L 348.3125 130.199219 L 185.84375 406.175781 L -90.132812 243.707031 Z M 72.335938 -32.269531 " clip-rule="nonzero"/></clipPath><clipPath id="6e8457a808"><path d="M 15 54 L 244 54 L 244 283 L 15 283 Z M 15 54 " clip-rule="nonzero"/></clipPath><clipPath id="c1a8b5905e"><path d="M 88.609375 29.160156 L 286.382812 145.589844 L 168.429688 345.949219 L -29.34375 229.519531 Z M 88.609375 29.160156 " clip-rule="nonzero"/></clipPath><clipPath id="842b97f751"><path d="M 88.679688 28.742188 L 287.746094 145.933594 L 169.410156 346.9375 L -29.652344 229.746094 Z M 88.679688 28.742188 " clip-rule="nonzero"/></clipPath><clipPath id="b0aec1620c"><path d="M 72.335938 -32.269531 L 348.3125 130.199219 L 185.84375 406.175781 L -90.132812 243.707031 Z M 72.335938 -32.269531 " clip-rule="nonzero"/></clipPath><clipPath id="7b31a5da8b"><path d="M 110 64 L 203 64 L 203 222 L 110 222 Z M 110 64 " clip-rule="nonzero"/></clipPath><clipPath id="2c11c54814"><path d="M 88.609375 29.160156 L 286.382812 145.589844 L 168.429688 345.949219 L -29.34375 229.519531 Z M 88.609375 29.160156 " clip-rule="nonzero"/></clipPath><clipPath id="159e961abc"><path d="M 88.679688 28.742188 L 287.746094 145.933594 L 169.410156 346.9375 L -29.652344 229.746094 Z M 88.679688 28.742188 " clip-rule="nonzero"/></clipPath><clipPath id="52d91719d2"><path d="M 72.335938 -32.269531 L 348.3125 130.199219 L 185.84375 406.175781 L -90.132812 243.707031 Z M 72.335938 -32.269531 " clip-rule="nonzero"/></clipPath><clipPath id="23d7fd2640"><path d="M 48 220 L 229 220 L 229 278 L 48 278 Z M 48 220 " clip-rule="nonzero"/></clipPath><clipPath id="fdd8f13499"><path d="M 88.609375 29.160156 L 286.382812 145.589844 L 168.429688 345.949219 L -29.34375 229.519531 Z M 88.609375 29.160156 " clip-rule="nonzero"/></clipPath><clipPath id="0c698b8846"><path d="M 88.679688 28.742188 L 287.746094 145.933594 L 169.410156 346.9375 L -29.652344 229.746094 Z M 88.679688 28.742188 " clip-rule="nonzero"/></clipPath><clipPath id="0c95347158"><path d="M 72.335938 -32.269531 L 348.3125 130.199219 L 185.84375 406.175781 L -90.132812 243.707031 Z M 72.335938 -32.269531 " clip-rule="nonzero"/></clipPath><clipPath id="135f502141"><path d="M 20 90 L 125 90 L 125 247 L 20 247 Z M 20 90 " clip-rule="nonzero"/></clipPath><clipPath id="88932fdb42"><path d="M 88.609375 29.160156 L 286.382812 145.589844 L 168.429688 345.949219 L -29.34375 229.519531 Z M 88.609375 29.160156 " clip-rule="nonzero"/></clipPath><clipPath id="43a27ed985"><path d="M 88.679688 28.742188 L 287.746094 145.933594 L 169.410156 346.9375 L -29.652344 229.746094 Z M 88.679688 28.742188 " clip-rule="nonzero"/></clipPath><clipPath id="69aa63b058"><path d="M 72.335938 -32.269531 L 348.3125 130.199219 L 185.84375 406.175781 L -90.132812 243.707031 Z M 72.335938 -32.269531 " clip-rule="nonzero"/></clipPath><clipPath id="4bd89a3f4c"><path d="M 20 90 L 125 90 L 125 218 L 20 218 Z M 20 90 " clip-rule="nonzero"/></clipPath><clipPath id="7a33f306b5"><path d="M 88.609375 29.160156 L 286.382812 145.589844 L 168.429688 345.949219 L -29.34375 229.519531 Z M 88.609375 29.160156 " clip-rule="nonzero"/></clipPath><clipPath id="332fd4f376"><path d="M 88.679688 28.742188 L 287.746094 145.933594 L 169.410156 346.9375 L -29.652344 229.746094 Z M 88.679688 28.742188 " clip-rule="nonzero"/></clipPath><clipPath id="d81ad6e6f1"><path d="M 72.335938 -32.269531 L 348.3125 130.199219 L 185.84375 406.175781 L -90.132812 243.707031 Z M 72.335938 -32.269531 " clip-rule="nonzero"/></clipPath><clipPath id="3c2bb7e09a"><path d="M 20 90 L 125 90 L 125 182 L 20 182 Z M 20 90 " clip-rule="nonzero"/></clipPath><clipPath id="f547788c3f"><path d="M 88.609375 29.160156 L 286.382812 145.589844 L 168.429688 345.949219 L -29.34375 229.519531 Z M 88.609375 29.160156 " clip-rule="nonzero"/></clipPath><clipPath id="d133a16a3b"><path d="M 88.679688 28.742188 L 287.746094 145.933594 L 169.410156 346.9375 L -29.652344 229.746094 Z M 88.679688 28.742188 " clip-rule="nonzero"/></clipPath><clipPath id="77d5728ba7"><path d="M 72.335938 -32.269531 L 348.3125 130.199219 L 185.84375 406.175781 L -90.132812 243.707031 Z M 72.335938 -32.269531 " clip-rule="nonzero"/></clipPath><clipPath id="eedd76397e"><path d="M 137 74 L 203 74 L 203 222 L 137 222 Z M 137 74 " clip-rule="nonzero"/></clipPath><clipPath id="00946d965a"><path d="M 88.609375 29.160156 L 286.382812 145.589844 L 168.429688 345.949219 L -29.34375 229.519531 Z M 88.609375 29.160156 " clip-rule="nonzero"/></clipPath><clipPath id="7700245eb0"><path d="M 88.679688 28.742188 L 287.746094 145.933594 L 169.410156 346.9375 L -29.652344 229.746094 Z M 88.679688 28.742188 " clip-rule="nonzero"/></clipPath><clipPath id="331287ea7a"><path d="M 72.335938 -32.269531 L 348.3125 130.199219 L 185.84375 406.175781 L -90.132812 243.707031 Z M 72.335938 -32.269531 " clip-rule="nonzero"/></clipPath><clipPath id="4cced67a18"><path d="M 171 87 L 203 87 L 203 222 L 171 222 Z M 171 87 " clip-rule="nonzero"/></clipPath><clipPath id="b2e9da3b23"><path d="M 88.609375 29.160156 L 286.382812 145.589844 L 168.429688 345.949219 L -29.34375 229.519531 Z M 88.609375 29.160156 " clip-rule="nonzero"/></clipPath><clipPath id="8eb23b1035"><path d="M 88.679688 28.742188 L 287.746094 145.933594 L 169.410156 346.9375 L -29.652344 229.746094 Z M 88.679688 28.742188 " clip-rule="nonzero"/></clipPath><clipPath id="55294663f9"><path d="M 72.335938 -32.269531 L 348.3125 130.199219 L 185.84375 406.175781 L -90.132812 243.707031 Z M 72.335938 -32.269531 " clip-rule="nonzero"/></clipPath><clipPath id="816cb820eb"><path d="M 48 220 L 207 220 L 207 278 L 48 278 Z M 48 220 " clip-rule="nonzero"/></clipPath><clipPath id="c5e9428747"><path d="M 88.609375 29.160156 L 286.382812 145.589844 L 168.429688 345.949219 L -29.34375 229.519531 Z M 88.609375 29.160156 " clip-rule="nonzero"/></clipPath><clipPath id="97b1703840"><path d="M 88.679688 28.742188 L 287.746094 145.933594 L 169.410156 346.9375 L -29.652344 229.746094 Z M 88.679688 28.742188 " clip-rule="nonzero"/></clipPath><clipPath id="2079eaf32e"><path d="M 72.335938 -32.269531 L 348.3125 130.199219 L 185.84375 406.175781 L -90.132812 243.707031 Z M 72.335938 -32.269531 " clip-rule="nonzero"/></clipPath><clipPath id="f0b2275297"><path d="M 48 220 L 178 220 L 178 278 L 48 278 Z M 48 220 " clip-rule="nonzero"/></clipPath><clipPath id="ecb8d1b1c4"><path d="M 88.609375 29.160156 L 286.382812 145.589844 L 168.429688 345.949219 L -29.34375 229.519531 Z M 88.609375 29.160156 " clip-rule="nonzero"/></clipPath><clipPath id="b273e1ffab"><path d="M 88.679688 28.742188 L 287.746094 145.933594 L 169.410156 346.9375 L -29.652344 229.746094 Z M 88.679688 28.742188 " clip-rule="nonzero"/></clipPath><clipPath id="f5f9802ca5"><path d="M 72.335938 -32.269531 L 348.3125 130.199219 L 185.84375 406.175781 L -90.132812 243.707031 Z M 72.335938 -32.269531 " clip-rule="nonzero"/></clipPath><clipPath id="c1679832da"><path d="M 110 64 L 199 64 L 199 222 L 110 222 Z M 110 64 " clip-rule="nonzero"/></clipPath><clipPath id="150ee82a5a"><path d="M 88.609375 29.160156 L 286.382812 145.589844 L 168.429688 345.949219 L -29.34375 229.519531 Z M 88.609375 29.160156 " clip-rule="nonzero"/></clipPath><clipPath id="58f842deae"><path d="M 88.679688 28.742188 L 287.746094 145.933594 L 169.410156 346.9375 L -29.652344 229.746094 Z M 88.679688 28.742188 " clip-rule="nonzero"/></clipPath><clipPath id="4d56bf9ed2"><path d="M 72.335938 -32.269531 L 348.3125 130.199219 L 185.84375 406.175781 L -90.132812 243.707031 Z M 72.335938 -32.269531 " clip-rule="nonzero"/></clipPath><clipPath id="0ae56591b2"><path d="M 32 90 L 125 90 L 125 247 L 32 247 Z M 32 90 " clip-rule="nonzero"/></clipPath><clipPath id="992414a67d"><path d="M 88.609375 29.160156 L 286.382812 145.589844 L 168.429688 345.949219 L -29.34375 229.519531 Z M 88.609375 29.160156 " clip-rule="nonzero"/></clipPath><clipPath id="f4ec63eeff"><path d="M 88.679688 28.742188 L 287.746094 145.933594 L 169.410156 346.9375 L -29.652344 229.746094 Z M 88.679688 28.742188 " clip-rule="nonzero"/></clipPath><clipPath id="f83a49d771"><path d="M 72.335938 -32.269531 L 348.3125 130.199219 L 185.84375 406.175781 L -90.132812 243.707031 Z M 72.335938 -32.269531 " clip-rule="nonzero"/></clipPath><clipPath id="c56b4c7cd6"><path d="M 48 220 L 229 220 L 229 228 L 48 228 Z M 48 220 " clip-rule="nonzero"/></clipPath><clipPath id="ce475f5b98"><path d="M 88.609375 29.160156 L 286.382812 145.589844 L 168.429688 345.949219 L -29.34375 229.519531 Z M 88.609375 29.160156 " clip-rule="nonzero"/></clipPath><clipPath id="3be4abd021"><path d="M 88.679688 28.742188 L 287.746094 145.933594 L 169.410156 346.9375 L -29.652344 229.746094 Z M 88.679688 28.742188 " clip-rule="nonzero"/></clipPath><clipPath id="261f2d0563"><path d="M 72.335938 -32.269531 L 348.3125 130.199219 L 185.84375 406.175781 L -90.132812 243.707031 Z M 72.335938 -32.269531 " clip-rule="nonzero"/></clipPath><clipPath id="2793dd0b6a"><path d="M 85 122 L 193 122 L 193 225 L 85 225 Z M 85 122 " clip-rule="nonzero"/></clipPath><clipPath id="154a420f8a"><path d="M 88.609375 29.160156 L 286.382812 145.589844 L 168.429688 345.949219 L -29.34375 229.519531 Z M 88.609375 29.160156 " clip-rule="nonzero"/></clipPath><clipPath id="7fc4258922"><path d="M 88.679688 28.742188 L 287.746094 145.933594 L 169.410156 346.9375 L -29.652344 229.746094 Z M 88.679688 28.742188 " clip-rule="nonzero"/></clipPath><clipPath id="f7fe609a9f"><path d="M 72.335938 -32.269531 L 348.3125 130.199219 L 185.84375 406.175781 L -90.132812 243.707031 Z M 72.335938 -32.269531 " clip-rule="nonzero"/></clipPath><mask id="e6916e7a9d"><g filter="url(#4faf4c36f9)"><rect x="-37.5" width="450" fill="#000000" y="-37.499999" height="449.999989" fill-opacity="0.23"/></g></mask><clipPath id="8e11f7934f"><path d="M 33 3 L 55 3 L 55 19 L 33 19 Z M 33 3 " clip-rule="nonzero"/></clipPath><clipPath id="81219c586d"><path d="M 3.609375 -92.839844 L 201.382812 23.589844 L 83.429688 223.949219 L -114.34375 107.519531 Z M 3.609375 -92.839844 " clip-rule="nonzero"/></clipPath><clipPath id="e9ab06ae1d"><path d="M 3.679688 -93.257812 L 202.746094 23.933594 L 84.410156 224.9375 L -114.652344 107.746094 Z M 3.679688 -93.257812 " clip-rule="nonzero"/></clipPath><clipPath id="b40ca8080b"><path d="M -12.664062 -154.269531 L 263.3125 8.199219 L 100.84375 284.175781 L -175.132812 121.707031 Z M -12.664062 -154.269531 " clip-rule="nonzero"/></clipPath><clipPath id="e3826a5f74"><path d="M 45 36 L 86 36 L 86 88 L 45 88 Z M 45 36 " clip-rule="nonzero"/></clipPath><clipPath id="be33e709e3"><path d="M 3.609375 -92.839844 L 201.382812 23.589844 L 83.429688 223.949219 L -114.34375 107.519531 Z M 3.609375 -92.839844 " clip-rule="nonzero"/></clipPath><clipPath id="0ec5307255"><path d="M 3.679688 -93.257812 L 202.746094 23.933594 L 84.410156 224.9375 L -114.652344 107.746094 Z M 3.679688 -93.257812 " clip-rule="nonzero"/></clipPath><clipPath id="32b9863d89"><path d="M -12.664062 -154.269531 L 263.3125 8.199219 L 100.84375 284.175781 L -175.132812 121.707031 Z M -12.664062 -154.269531 " clip-rule="nonzero"/></clipPath><clipPath id="a67d68bb26"><rect x="0" width="108" y="0" height="103"/></clipPath><clipPath id="4172fdbaa0"><path d="M 77 177 L 102 177 L 102 209 L 77 209 Z M 77 177 " clip-rule="nonzero"/></clipPath><clipPath id="a6f2a01f2f"><path d="M 88.609375 29.160156 L 286.382812 145.589844 L 168.429688 345.949219 L -29.34375 229.519531 Z M 88.609375 29.160156 " clip-rule="nonzero"/></clipPath><clipPath id="a82e21e95e"><path d="M 88.679688 28.742188 L 287.746094 145.933594 L 169.410156 346.9375 L -29.652344 229.746094 Z M 88.679688 28.742188 " clip-rule="nonzero"/></clipPath><clipPath id="8938fc22d3"><path d="M 72.335938 -32.269531 L 348.3125 130.199219 L 185.84375 406.175781 L -90.132812 243.707031 Z M 72.335938 -32.269531 " clip-rule="nonzero"/></clipPath><clipPath id="e1be50b3e3"><path d="M 20 121 L 66 121 L 66 247 L 20 247 Z M 20 121 " clip-rule="nonzero"/></clipPath><clipPath id="a5d7d09ce5"><path d="M 88.609375 29.160156 L 286.382812 145.589844 L 168.429688 345.949219 L -29.34375 229.519531 Z M 88.609375 29.160156 " clip-rule="nonzero"/></clipPath><clipPath id="e5b789245a"><path d="M 88.679688 28.742188 L 287.746094 145.933594 L 169.410156 346.9375 L -29.652344 229.746094 Z M 88.679688 28.742188 " clip-rule="nonzero"/></clipPath><clipPath id="a64e61ac10"><path d="M 72.335938 -32.269531 L 348.3125 130.199219 L 185.84375 406.175781 L -90.132812 243.707031 Z M 72.335938 -32.269531 " clip-rule="nonzero"/></clipPath><clipPath id="cd60efb5db"><path d="M 110 64 L 203 64 L 203 155 L 110 155 Z M 110 64 " clip-rule="nonzero"/></clipPath><clipPath id="6663b6b6e9"><path d="M 88.609375 29.160156 L 286.382812 145.589844 L 168.429688 345.949219 L -29.34375 229.519531 Z M 88.609375 29.160156 " clip-rule="nonzero"/></clipPath><clipPath id="c1246e3d73"><path d="M 88.679688 28.742188 L 287.746094 145.933594 L 169.410156 346.9375 L -29.652344 229.746094 Z M 88.679688 28.742188 " clip-rule="nonzero"/></clipPath><clipPath id="efa4c8190e"><path d="M 72.335938 -32.269531 L 348.3125 130.199219 L 185.84375 406.175781 L -90.132812 243.707031 Z M 72.335938 -32.269531 " clip-rule="nonzero"/></clipPath><clipPath id="e6c2f6c0c2"><path d="M 105 221 L 229 221 L 229 278 L 105 278 Z M 105 221 " clip-rule="nonzero"/></clipPath><clipPath id="ce848f3b93"><path d="M 88.609375 29.160156 L 286.382812 145.589844 L 168.429688 345.949219 L -29.34375 229.519531 Z M 88.609375 29.160156 " clip-rule="nonzero"/></clipPath><clipPath id="aaabf7aa12"><path d="M 88.679688 28.742188 L 287.746094 145.933594 L 169.410156 346.9375 L -29.652344 229.746094 Z M 88.679688 28.742188 " clip-rule="nonzero"/></clipPath><clipPath id="f58e6f9884"><path d="M 72.335938 -32.269531 L 348.3125 130.199219 L 185.84375 406.175781 L -90.132812 243.707031 Z M 72.335938 -32.269531 " clip-rule="nonzero"/></clipPath><clipPath id="6b1aa9bb3d"><path d="M 79 203 L 160 203 L 160 210 L 79 210 Z M 79 203 " clip-rule="nonzero"/></clipPath><clipPath id="b5155df486"><path d="M 88.609375 29.160156 L 286.382812 145.589844 L 168.429688 345.949219 L -29.34375 229.519531 Z M 88.609375 29.160156 " clip-rule="nonzero"/></clipPath><clipPath id="750dcdff3c"><path d="M 88.679688 28.742188 L 287.746094 145.933594 L 169.410156 346.9375 L -29.652344 229.746094 Z M 88.679688 28.742188 " clip-rule="nonzero"/></clipPath><clipPath id="27d35691a4"><path d="M 72.335938 -32.269531 L 348.3125 130.199219 L 185.84375 406.175781 L -90.132812 243.707031 Z M 72.335938 -32.269531 " clip-rule="nonzero"/></clipPath><clipPath id="2ae958ea09"><path d="M 91 133 L 156 133 L 156 190 L 91 190 Z M 91 133 " clip-rule="nonzero"/></clipPath><clipPath id="add0f0af88"><path d="M 88.609375 29.160156 L 286.382812 145.589844 L 168.429688 345.949219 L -29.34375 229.519531 Z M 88.609375 29.160156 " clip-rule="nonzero"/></clipPath><clipPath id="888847ef98"><path d="M 88.679688 28.742188 L 287.746094 145.933594 L 169.410156 346.9375 L -29.652344 229.746094 Z M 88.679688 28.742188 " clip-rule="nonzero"/></clipPath><clipPath id="ae68f34c23"><path d="M 72.335938 -32.269531 L 348.3125 130.199219 L 185.84375 406.175781 L -90.132812 243.707031 Z M 72.335938 -32.269531 " clip-rule="nonzero"/></clipPath><clipPath id="80e581335d"><path d="M 92 131 L 157 131 L 157 188 L 92 188 Z M 92 131 " clip-rule="nonzero"/></clipPath><clipPath id="225be17109"><path d="M 88.609375 29.160156 L 286.382812 145.589844 L 168.429688 345.949219 L -29.34375 229.519531 Z M 88.609375 29.160156 " clip-rule="nonzero"/></clipPath><clipPath id="86fca026c0"><path d="M 88.679688 28.742188 L 287.746094 145.933594 L 169.410156 346.9375 L -29.652344 229.746094 Z M 88.679688 28.742188 " clip-rule="nonzero"/></clipPath><clipPath id="aa7d6b4ae5"><path d="M 72.335938 -32.269531 L 348.3125 130.199219 L 185.84375 406.175781 L -90.132812 243.707031 Z M 72.335938 -32.269531 " clip-rule="nonzero"/></clipPath><clipPath id="057242b96d"><path d="M 23 54 L 247 54 L 247 279 L 23 279 Z M 23 54 " clip-rule="nonzero"/></clipPath><clipPath id="3ee871e7e6"><path d="M 88.609375 29.160156 L 286.382812 145.589844 L 168.429688 345.949219 L -29.34375 229.519531 Z M 88.609375 29.160156 " clip-rule="nonzero"/></clipPath><clipPath id="84f41c012c"><path d="M 88.679688 28.742188 L 287.746094 145.933594 L 169.410156 346.9375 L -29.652344 229.746094 Z M 88.679688 28.742188 " clip-rule="nonzero"/></clipPath><clipPath id="cafd315456"><path d="M 72.335938 -32.269531 L 348.3125 130.199219 L 185.84375 406.175781 L -90.132812 243.707031 Z M 72.335938 -32.269531 " clip-rule="nonzero"/></clipPath><mask id="7fc85cc8fe"><g filter="url(#4faf4c36f9)"><rect x="-37.5" width="450" fill="#000000" y="-37.499999" height="449.999989" fill-opacity="0.32"/></g></mask><clipPath id="e5c902cb32"><path d="M 43 121 L 44 121 L 44 122 L 43 122 Z M 43 121 " clip-rule="nonzero"/></clipPath><clipPath id="b84f87da6b"><path d="M 65.609375 -24.839844 L 263.382812 91.589844 L 145.429688 291.949219 L -52.34375 175.519531 Z M 65.609375 -24.839844 " clip-rule="nonzero"/></clipPath><clipPath id="bda7595564"><path d="M 65.679688 -25.257812 L 264.746094 91.933594 L 146.410156 292.9375 L -52.652344 175.746094 Z M 65.679688 -25.257812 " clip-rule="nonzero"/></clipPath><clipPath id="405f88734c"><path d="M 49.335938 -86.269531 L 325.3125 76.199219 L 162.84375 352.175781 L -113.132812 189.707031 Z M 49.335938 -86.269531 " clip-rule="nonzero"/></clipPath><clipPath id="a5ef730af8"><path d="M 39 76 L 44 76 L 44 81 L 39 81 Z M 39 76 " clip-rule="nonzero"/></clipPath><clipPath id="a3053f95b7"><path d="M 65.609375 -24.839844 L 263.382812 91.589844 L 145.429688 291.949219 L -52.34375 175.519531 Z M 65.609375 -24.839844 " clip-rule="nonzero"/></clipPath><clipPath id="9d6715b892"><path d="M 65.679688 -25.257812 L 264.746094 91.933594 L 146.410156 292.9375 L -52.652344 175.746094 Z M 65.679688 -25.257812 " clip-rule="nonzero"/></clipPath><clipPath id="b1ea78125b"><path d="M 49.335938 -86.269531 L 325.3125 76.199219 L 162.84375 352.175781 L -113.132812 189.707031 Z M 49.335938 -86.269531 " clip-rule="nonzero"/></clipPath><clipPath id="a3ebb594b9"><path d="M 37 105 L 45 105 L 45 113 L 37 113 Z M 37 105 " clip-rule="nonzero"/></clipPath><clipPath id="5e48a9954e"><path d="M 65.609375 -24.839844 L 263.382812 91.589844 L 145.429688 291.949219 L -52.34375 175.519531 Z M 65.609375 -24.839844 " clip-rule="nonzero"/></clipPath><clipPath id="029bc29646"><path d="M 65.679688 -25.257812 L 264.746094 91.933594 L 146.410156 292.9375 L -52.652344 175.746094 Z M 65.679688 -25.257812 " clip-rule="nonzero"/></clipPath><clipPath id="7248daa20a"><path d="M 49.335938 -86.269531 L 325.3125 76.199219 L 162.84375 352.175781 L -113.132812 189.707031 Z M 49.335938 -86.269531 " clip-rule="nonzero"/></clipPath><clipPath id="d09b5eefed"><path d="M 6 129 L 15 129 L 15 137 L 6 137 Z M 6 129 " clip-rule="nonzero"/></clipPath><clipPath id="5199d6e643"><path d="M 65.609375 -24.839844 L 263.382812 91.589844 L 145.429688 291.949219 L -52.34375 175.519531 Z M 65.609375 -24.839844 " clip-rule="nonzero"/></clipPath><clipPath id="482a880f47"><path d="M 65.679688 -25.257812 L 264.746094 91.933594 L 146.410156 292.9375 L -52.652344 175.746094 Z M 65.679688 -25.257812 " clip-rule="nonzero"/></clipPath><clipPath id="2eb092777d"><path d="M 49.335938 -86.269531 L 325.3125 76.199219 L 162.84375 352.175781 L -113.132812 189.707031 Z M 49.335938 -86.269531 " clip-rule="nonzero"/></clipPath><clipPath id="3329f174c6"><path d="M 112 199 L 117 199 L 117 203 L 112 203 Z M 112 199 " clip-rule="nonzero"/></clipPath><clipPath id="027c03515d"><path d="M 65.609375 -24.839844 L 263.382812 91.589844 L 145.429688 291.949219 L -52.34375 175.519531 Z M 65.609375 -24.839844 " clip-rule="nonzero"/></clipPath><clipPath id="08b2c3dbd0"><path d="M 65.679688 -25.257812 L 264.746094 91.933594 L 146.410156 292.9375 L -52.652344 175.746094 Z M 65.679688 -25.257812 " clip-rule="nonzero"/></clipPath><clipPath id="32eb40c543"><path d="M 49.335938 -86.269531 L 325.3125 76.199219 L 162.84375 352.175781 L -113.132812 189.707031 Z M 49.335938 -86.269531 " clip-rule="nonzero"/></clipPath><clipPath id="83dcf5fceb"><path d="M 155 180 L 158 180 L 158 184 L 155 184 Z M 155 180 " clip-rule="nonzero"/></clipPath><clipPath id="deb27cc3fb"><path d="M 65.609375 -24.839844 L 263.382812 91.589844 L 145.429688 291.949219 L -52.34375 175.519531 Z M 65.609375 -24.839844 " clip-rule="nonzero"/></clipPath><clipPath id="b51dc13c82"><path d="M 65.679688 -25.257812 L 264.746094 91.933594 L 146.410156 292.9375 L -52.652344 175.746094 Z M 65.679688 -25.257812 " clip-rule="nonzero"/></clipPath><clipPath id="ba766c5607"><path d="M 49.335938 -86.269531 L 325.3125 76.199219 L 162.84375 352.175781 L -113.132812 189.707031 Z M 49.335938 -86.269531 " clip-rule="nonzero"/></clipPath><clipPath id="78e1c4e1dc"><path d="M 137 207 L 147 207 L 147 217 L 137 217 Z M 137 207 " clip-rule="nonzero"/></clipPath><clipPath id="a2ce9c02d1"><path d="M 65.609375 -24.839844 L 263.382812 91.589844 L 145.429688 291.949219 L -52.34375 175.519531 Z M 65.609375 -24.839844 " clip-rule="nonzero"/></clipPath><clipPath id="b69187a875"><path d="M 65.679688 -25.257812 L 264.746094 91.933594 L 146.410156 292.9375 L -52.652344 175.746094 Z M 65.679688 -25.257812 " clip-rule="nonzero"/></clipPath><clipPath id="12de21d7c5"><path d="M 49.335938 -86.269531 L 325.3125 76.199219 L 162.84375 352.175781 L -113.132812 189.707031 Z M 49.335938 -86.269531 " clip-rule="nonzero"/></clipPath><clipPath id="2cfbd6c6ee"><path d="M 78 184 L 83 184 L 83 189 L 78 189 Z M 78 184 " clip-rule="nonzero"/></clipPath><clipPath id="d8a43c09e1"><path d="M 65.609375 -24.839844 L 263.382812 91.589844 L 145.429688 291.949219 L -52.34375 175.519531 Z M 65.609375 -24.839844 " clip-rule="nonzero"/></clipPath><clipPath id="15e6ab778f"><path d="M 65.679688 -25.257812 L 264.746094 91.933594 L 146.410156 292.9375 L -52.652344 175.746094 Z M 65.679688 -25.257812 " clip-rule="nonzero"/></clipPath><clipPath id="e99d465bbd"><path d="M 49.335938 -86.269531 L 325.3125 76.199219 L 162.84375 352.175781 L -113.132812 189.707031 Z M 49.335938 -86.269531 " clip-rule="nonzero"/></clipPath><clipPath id="a002ff9511"><path d="M 135 33 L 140 33 L 140 37 L 135 37 Z M 135 33 " clip-rule="nonzero"/></clipPath><clipPath id="bd65121971"><path d="M 65.609375 -24.839844 L 263.382812 91.589844 L 145.429688 291.949219 L -52.34375 175.519531 Z M 65.609375 -24.839844 " clip-rule="nonzero"/></clipPath><clipPath id="e92e1db1b5"><path d="M 65.679688 -25.257812 L 264.746094 91.933594 L 146.410156 292.9375 L -52.652344 175.746094 Z M 65.679688 -25.257812 " clip-rule="nonzero"/></clipPath><clipPath id="05e21c3cbf"><path d="M 49.335938 -86.269531 L 325.3125 76.199219 L 162.84375 352.175781 L -113.132812 189.707031 Z M 49.335938 -86.269531 " clip-rule="nonzero"/></clipPath><clipPath id="43cead31f5"><path d="M 151 78 L 156 78 L 156 83 L 151 83 Z M 151 78 " clip-rule="nonzero"/></clipPath><clipPath id="f8aef39069"><path d="M 65.609375 -24.839844 L 263.382812 91.589844 L 145.429688 291.949219 L -52.34375 175.519531 Z M 65.609375 -24.839844 " clip-rule="nonzero"/></clipPath><clipPath id="c699b3d42a"><path d="M 65.679688 -25.257812 L 264.746094 91.933594 L 146.410156 292.9375 L -52.652344 175.746094 Z M 65.679688 -25.257812 " clip-rule="nonzero"/></clipPath><clipPath id="d5ade5e68c"><path d="M 49.335938 -86.269531 L 325.3125 76.199219 L 162.84375 352.175781 L -113.132812 189.707031 Z M 49.335938 -86.269531 " clip-rule="nonzero"/></clipPath><clipPath id="26e228fd3d"><path d="M 167 121 L 169 121 L 169 124 L 167 124 Z M 167 121 " clip-rule="nonzero"/></clipPath><clipPath id="48f433b446"><path d="M 65.609375 -24.839844 L 263.382812 91.589844 L 145.429688 291.949219 L -52.34375 175.519531 Z M 65.609375 -24.839844 " clip-rule="nonzero"/></clipPath><clipPath id="7ffbb6bfb6"><path d="M 65.679688 -25.257812 L 264.746094 91.933594 L 146.410156 292.9375 L -52.652344 175.746094 Z M 65.679688 -25.257812 " clip-rule="nonzero"/></clipPath><clipPath id="5591341575"><path d="M 49.335938 -86.269531 L 325.3125 76.199219 L 162.84375 352.175781 L -113.132812 189.707031 Z M 49.335938 -86.269531 " clip-rule="nonzero"/></clipPath><clipPath id="d87543a620"><path d="M 122 47 L 130 47 L 130 55 L 122 55 Z M 122 47 " clip-rule="nonzero"/></clipPath><clipPath id="664f32975e"><path d="M 65.609375 -24.839844 L 263.382812 91.589844 L 145.429688 291.949219 L -52.34375 175.519531 Z M 65.609375 -24.839844 " clip-rule="nonzero"/></clipPath><clipPath id="19059cb0ab"><path d="M 65.679688 -25.257812 L 264.746094 91.933594 L 146.410156 292.9375 L -52.652344 175.746094 Z M 65.679688 -25.257812 " clip-rule="nonzero"/></clipPath><clipPath id="cf2580cefa"><path d="M 49.335938 -86.269531 L 325.3125 76.199219 L 162.84375 352.175781 L -113.132812 189.707031 Z M 49.335938 -86.269531 " clip-rule="nonzero"/></clipPath><clipPath id="76daf9551b"><path d="M 137 83 L 142 83 L 142 88 L 137 88 Z M 137 83 " clip-rule="nonzero"/></clipPath><clipPath id="bf1a76149c"><path d="M 65.609375 -24.839844 L 263.382812 91.589844 L 145.429688 291.949219 L -52.34375 175.519531 Z M 65.609375 -24.839844 " clip-rule="nonzero"/></clipPath><clipPath id="4a9db4b21f"><path d="M 65.679688 -25.257812 L 264.746094 91.933594 L 146.410156 292.9375 L -52.652344 175.746094 Z M 65.679688 -25.257812 " clip-rule="nonzero"/></clipPath><clipPath id="8cada2fc85"><path d="M 49.335938 -86.269531 L 325.3125 76.199219 L 162.84375 352.175781 L -113.132812 189.707031 Z M 49.335938 -86.269531 " clip-rule="nonzero"/></clipPath><clipPath id="8f235e9b9d"><rect x="0" width="224" y="0" height="225"/></clipPath><clipPath id="fdc923df0a"><path d="M 89 151 L 139 151 L 139 203 L 89 203 Z M 89 151 " clip-rule="nonzero"/></clipPath><clipPath id="ae640d562d"><path d="M 88.609375 29.160156 L 286.382812 145.589844 L 168.429688 345.949219 L -29.34375 229.519531 Z M 88.609375 29.160156 " clip-rule="nonzero"/></clipPath><clipPath id="7ac0d36b65"><path d="M 88.679688 28.742188 L 287.746094 145.933594 L 169.410156 346.9375 L -29.652344 229.746094 Z M 88.679688 28.742188 " clip-rule="nonzero"/></clipPath><clipPath id="dd7995df00"><path d="M 72.335938 -32.269531 L 348.3125 130.199219 L 185.84375 406.175781 L -90.132812 243.707031 Z M 72.335938 -32.269531 " clip-rule="nonzero"/></clipPath><mask id="c1e7aaa47d"><g filter="url(#4faf4c36f9)"><rect x="-37.5" width="450" fill="#000000" y="-37.499999" height="449.999989" fill-opacity="0.77"/></g></mask><clipPath id="8f6a3aacba"><path d="M 2 0.679688 L 37 0.679688 L 37 39 L 2 39 Z M 2 0.679688 " clip-rule="nonzero"/></clipPath><clipPath id="38388b89c7"><path d="M -0.390625 -121.839844 L 197.382812 -5.410156 L 79.429688 194.949219 L -118.34375 78.519531 Z M -0.390625 -121.839844 " clip-rule="nonzero"/></clipPath><clipPath id="9b13fe6d55"><path d="M -0.320312 -122.257812 L 198.746094 -5.066406 L 80.410156 195.9375 L -118.652344 78.746094 Z M -0.320312 -122.257812 " clip-rule="nonzero"/></clipPath><clipPath id="5010d510c5"><path d="M -16.664062 -183.269531 L 259.3125 -20.800781 L 96.84375 255.175781 L -179.132812 92.707031 Z M -16.664062 -183.269531 " clip-rule="nonzero"/></clipPath><clipPath id="206df15125"><rect x="0" width="50" y="0" height="52"/></clipPath><clipPath id="87549df932"><path d="M 79 190 L 160 190 L 160 210 L 79 210 Z M 79 190 " clip-rule="nonzero"/></clipPath><clipPath id="16422f62d6"><path d="M 88.609375 29.160156 L 286.382812 145.589844 L 168.429688 345.949219 L -29.34375 229.519531 Z M 88.609375 29.160156 " clip-rule="nonzero"/></clipPath><clipPath id="196560b409"><path d="M 88.679688 28.742188 L 287.746094 145.933594 L 169.410156 346.9375 L -29.652344 229.746094 Z M 88.679688 28.742188 " clip-rule="nonzero"/></clipPath><clipPath id="807a70d20b"><path d="M 72.335938 -32.269531 L 348.3125 130.199219 L 185.84375 406.175781 L -90.132812 243.707031 Z M 72.335938 -32.269531 " clip-rule="nonzero"/></clipPath></defs><g clip-path="url(#8863e6322b)"><g clip-path="url(#22c7e94bd9)"><g clip-path="url(#2d532ac89a)"><g clip-path="url(#89042d1942)"><path fill="#000000" d="M 198.832031 221.578125 L 124.824219 90.84375 L 48.605469 220.308594 Z M 198.832031 221.578125 " fill-opacity="1" fill-rule="nonzero"/></g></g></g></g><g clip-path="url(#5f0f958556)"><g clip-path="url(#ac092ba90a)"><g clip-path="url(#ac0e10f4d3)"><g clip-path="url(#ef1c7136e7)"><path fill="#d11d4d" d="M 159.453125 209.109375 L 135.613281 208.90625 L 114.722656 208.730469 L 88.191406 208.503906 C 84.898438 208.476562 82.113281 207.023438 80.230469 204.835938 C 79.851562 204.402344 79.511719 203.9375 79.214844 203.449219 C 77.40625 200.523438 76.992188 196.75 78.632812 193.304688 C 78.769531 193.011719 78.925781 192.726562 79.09375 192.4375 L 115.25 131.023438 C 118.910156 124.808594 127.269531 124.125 131.992188 128.894531 C 132.640625 129.554688 133.226562 130.316406 133.714844 131.183594 C 133.714844 131.183594 133.714844 131.1875 133.71875 131.191406 L 134.597656 132.742188 L 136.652344 136.371094 L 168.824219 193.203125 C 172.867188 200.339844 167.664062 209.179688 159.453125 209.109375 Z M 159.453125 209.109375 " fill-opacity="1" fill-rule="nonzero"/></g></g></g></g><g clip-path="url(#98e24fdfa4)"><g clip-path="url(#5ce72cf269)"><g clip-path="url(#cc9590ce8b)"><g clip-path="url(#5ba5ab9c0a)"><path fill="#ffae00" d="M 159.453125 209.109375 C 159.453125 209.109375 159.453125 209.109375 159.445312 209.109375 L 135.613281 208.910156 L 114.722656 208.730469 L 88.191406 208.503906 C 84.898438 208.480469 82.113281 207.023438 80.230469 204.835938 C 79.140625 202.199219 79.082031 199.109375 80.445312 196.25 C 80.582031 195.957031 80.734375 195.671875 80.90625 195.382812 L 117.0625 133.964844 C 120.71875 127.75 129.082031 127.066406 133.804688 131.835938 C 134.078125 132.117188 134.34375 132.417969 134.59375 132.738281 L 136.648438 136.367188 L 168.820312 193.199219 C 172.867188 200.339844 167.664062 209.183594 159.453125 209.109375 Z M 159.453125 209.109375 " fill-opacity="1" fill-rule="nonzero"/></g></g></g></g><g clip-path="url(#6e8457a808)"><g clip-path="url(#c1a8b5905e)"><g clip-path="url(#842b97f751)"><g clip-path="url(#b0aec1620c)"><path fill="#000000" d="M 204.527344 216.238281 L 208.414062 126.832031 C 209.097656 111.171875 201.132812 96.507812 187.636719 88.5625 C 185.519531 87.316406 183.277344 86.25 180.96875 85.386719 L 98.019531 54.402344 L 117.347656 88.578125 L 37.976562 129.921875 C 30.003906 134.074219 23.667969 140.519531 19.664062 148.5625 C 15.652344 156.609375 14.320312 165.546875 15.808594 174.410156 L 30.449219 261.738281 L 50.382812 227.910156 L 125.867188 275.976562 C 126.285156 276.242188 126.710938 276.503906 127.136719 276.753906 C 134.636719 281.171875 143.195312 283.144531 151.878906 282.46875 C 160.582031 281.785156 168.746094 278.488281 175.480469 272.933594 L 243.789062 216.59375 Z M 58.03125 214.929688 L 124.765625 101.691406 L 189.460938 216.101562 Z M 58.03125 214.929688 " fill-opacity="1" fill-rule="nonzero"/></g></g></g></g><g clip-path="url(#7b31a5da8b)"><g clip-path="url(#2c11c54814)"><g clip-path="url(#159e961abc)"><g clip-path="url(#52d91719d2)"><path fill="#ffae00" d="M 202.957031 126.59375 L 198.832031 221.578125 L 198.824219 221.570312 L 110.152344 64.765625 L 115.769531 66.863281 L 179.054688 90.503906 C 194 96.085938 203.652344 110.65625 202.957031 126.59375 Z M 202.957031 126.59375 " fill-opacity="1" fill-rule="nonzero"/></g></g></g></g><g clip-path="url(#23d7fd2640)"><g clip-path="url(#fdd8f13499)"><g clip-path="url(#0c698b8846)"><g clip-path="url(#0c95347158)"><path fill="#d11d4d" d="M 228.753906 221.914062 L 222.097656 227.40625 L 172.007812 268.71875 C 159.703125 278.871094 142.257812 279.941406 128.804688 271.375 L 48.605469 220.308594 L 48.628906 220.304688 Z M 228.753906 221.914062 " fill-opacity="1" fill-rule="nonzero"/></g></g></g></g><g clip-path="url(#135f502141)"><g clip-path="url(#88932fdb42)"><g clip-path="url(#43a27ed985)"><g clip-path="url(#69aa63b058)"><path fill="#00ffc7" d="M 124.820312 90.84375 L 63.480469 194.929688 L 33.355469 246.050781 L 32.105469 238.605469 L 28.554688 217.410156 L 22.457031 181.039062 L 21.191406 173.507812 C 18.554688 157.773438 26.351562 142.132812 40.5 134.761719 L 65.152344 121.921875 Z M 124.820312 90.84375 " fill-opacity="1" fill-rule="nonzero"/></g></g></g></g><g clip-path="url(#4bd89a3f4c)"><g clip-path="url(#7a33f306b5)"><g clip-path="url(#332fd4f376)"><g clip-path="url(#d81ad6e6f1)"><path fill="#000000" d="M 124.820312 90.84375 L 28.554688 217.414062 L 22.457031 181.042969 L 21.191406 173.507812 C 18.554688 157.777344 26.347656 142.136719 40.5 134.765625 Z M 124.820312 90.84375 " fill-opacity="0.23" fill-rule="nonzero"/></g></g></g></g><g clip-path="url(#3c2bb7e09a)"><g clip-path="url(#f547788c3f)"><g clip-path="url(#d133a16a3b)"><g clip-path="url(#77d5728ba7)"><path fill="#000000" d="M 124.820312 90.84375 L 22.457031 181.039062 L 21.191406 173.507812 C 18.554688 157.773438 26.351562 142.132812 40.5 134.761719 Z M 124.820312 90.84375 " fill-opacity="0.23" fill-rule="nonzero"/></g></g></g></g><g clip-path="url(#eedd76397e)"><g clip-path="url(#00946d965a)"><g clip-path="url(#7700245eb0)"><g clip-path="url(#331287ea7a)"><path fill="#000000" d="M 198.832031 221.578125 L 137.355469 74.925781 L 171.902344 87.828125 L 179.058594 90.5 C 194.003906 96.082031 203.652344 110.652344 202.960938 126.59375 Z M 198.832031 221.578125 " fill-opacity="0.23" fill-rule="nonzero"/></g></g></g></g><g clip-path="url(#4cced67a18)"><g clip-path="url(#b2e9da3b23)"><g clip-path="url(#8eb23b1035)"><g clip-path="url(#55294663f9)"><path fill="#000000" d="M 198.832031 221.578125 L 171.902344 87.832031 L 179.058594 90.503906 C 194 96.085938 203.652344 110.65625 202.957031 126.59375 Z M 198.832031 221.578125 " fill-opacity="0.23" fill-rule="nonzero"/></g></g></g></g><g clip-path="url(#816cb820eb)"><g clip-path="url(#c5e9428747)"><g clip-path="url(#97b1703840)"><g clip-path="url(#2079eaf32e)"><path fill="#000000" d="M 48.605469 220.304688 L 206.347656 240.390625 L 177.898438 263.859375 L 172.003906 268.722656 C 159.699219 278.871094 142.253906 279.941406 128.796875 271.375 Z M 48.605469 220.304688 " fill-opacity="0.23" fill-rule="nonzero"/></g></g></g></g><g clip-path="url(#f0b2275297)"><g clip-path="url(#ecb8d1b1c4)"><g clip-path="url(#b273e1ffab)"><g clip-path="url(#f5f9802ca5)"><path fill="#000000" d="M 48.605469 220.304688 L 177.898438 263.859375 L 172.003906 268.71875 C 159.699219 278.867188 142.253906 279.941406 128.796875 271.371094 Z M 48.605469 220.304688 " fill-opacity="0.23" fill-rule="nonzero"/></g></g></g></g><g clip-path="url(#c1679832da)"><g clip-path="url(#150ee82a5a)"><g clip-path="url(#58f842deae)"><g clip-path="url(#4d56bf9ed2)"><path fill="#ffffff" d="M 198.832031 221.578125 L 198.828125 221.570312 L 110.152344 64.765625 L 115.773438 66.863281 Z M 198.832031 221.578125 " fill-opacity="0.46" fill-rule="nonzero"/></g></g></g></g><g clip-path="url(#0ae56591b2)"><g clip-path="url(#992414a67d)"><g clip-path="url(#f4ec63eeff)"><g clip-path="url(#f83a49d771)"><path fill="#ffffff" d="M 124.820312 90.84375 L 33.355469 246.050781 L 32.105469 238.605469 Z M 124.820312 90.84375 " fill-opacity="0.46" fill-rule="nonzero"/></g></g></g></g><g clip-path="url(#c56b4c7cd6)"><g clip-path="url(#ce475f5b98)"><g clip-path="url(#3be4abd021)"><g clip-path="url(#261f2d0563)"><path fill="#ffffff" d="M 228.753906 221.914062 L 222.097656 227.40625 L 48.605469 220.308594 L 48.628906 220.308594 Z M 228.753906 221.914062 " fill-opacity="0.46" fill-rule="nonzero"/></g></g></g></g><g clip-path="url(#2793dd0b6a)"><g clip-path="url(#154a420f8a)"><g clip-path="url(#7fc4258922)"><g clip-path="url(#f7fe609a9f)"><g mask="url(#e6916e7a9d)"><g transform="matrix(1, 0, 0, 1, 85, 122)"><g clip-path="url(#a67d68bb26)"><g clip-path="url(#8e11f7934f)"><g clip-path="url(#81219c586d)"><g clip-path="url(#e9ab06ae1d)"><g clip-path="url(#b40ca8080b)"><path fill="#000000" d="M 43.667969 10.242188 C 47.640625 12.578125 51.121094 15.429688 54.078125 18.65625 L 51.652344 14.371094 L 48.71875 9.191406 C 48.714844 9.1875 48.714844 9.183594 48.714844 9.183594 C 48.222656 8.316406 47.640625 7.554688 46.992188 6.894531 C 43.304688 3.164062 37.386719 2.773438 33.234375 5.742188 C 36.808594 6.773438 40.3125 8.265625 43.667969 10.242188 Z M 43.667969 10.242188 " fill-opacity="1" fill-rule="nonzero"/></g></g></g></g><g clip-path="url(#e3826a5f74)"><g clip-path="url(#be33e709e3)"><g clip-path="url(#0ec5307255)"><g clip-path="url(#32b9863d89)"><path fill="#000000" d="M 83.820312 71.199219 L 64.0625 36.296875 C 67.523438 47.917969 66.335938 60.890625 59.699219 72.167969 C 56.113281 78.257812 51.320312 83.199219 45.804688 86.867188 L 50.609375 86.910156 L 74.449219 87.109375 C 82.664062 87.179688 87.867188 78.339844 83.820312 71.199219 Z M 83.820312 71.199219 " fill-opacity="1" fill-rule="nonzero"/></g></g></g></g></g></g></g></g></g></g></g><g clip-path="url(#4172fdbaa0)"><g clip-path="url(#a6f2a01f2f)"><g clip-path="url(#a82e21e95e)"><g clip-path="url(#8938fc22d3)"><path fill="#000000" d="M 87.847656 177.5625 L 79.089844 192.4375 C 78.921875 192.722656 78.769531 193.011719 78.628906 193.300781 C 75.34375 200.214844 80.316406 208.4375 88.1875 208.503906 L 101.796875 208.621094 C 92.414062 200.875 87.445312 189.289062 87.847656 177.5625 Z M 87.847656 177.5625 " fill-opacity="0.23" fill-rule="nonzero"/></g></g></g></g><g clip-path="url(#e1be50b3e3)"><g clip-path="url(#a5d7d09ce5)"><g clip-path="url(#e5b789245a)"><g clip-path="url(#a64e61ac10)"><path fill="#000000" d="M 63.480469 194.929688 L 33.355469 246.050781 L 32.105469 238.605469 L 28.554688 217.410156 L 22.457031 181.039062 L 21.191406 173.507812 C 18.554688 157.773438 26.351562 142.132812 40.5 134.761719 L 65.152344 121.921875 C 52.8125 132.992188 42.058594 149.101562 43.527344 171.175781 C 44.730469 189.34375 53.226562 195.019531 63.480469 194.929688 Z M 63.480469 194.929688 " fill-opacity="0.23" fill-rule="nonzero"/></g></g></g></g><g clip-path="url(#cd60efb5db)"><g clip-path="url(#6663b6b6e9)"><g clip-path="url(#c1246e3d73)"><g clip-path="url(#efa4c8190e)"><path fill="#000000" d="M 139.363281 116.414062 L 110.152344 64.765625 L 117.222656 67.402344 L 137.355469 74.925781 L 171.902344 87.828125 L 179.058594 90.5 C 194.003906 96.082031 203.652344 110.652344 202.960938 126.59375 L 201.753906 154.363281 C 198.335938 138.140625 189.761719 120.773438 169.910156 111.007812 C 153.574219 102.96875 144.414062 107.488281 139.363281 116.414062 Z M 139.363281 116.414062 " fill-opacity="0.23" fill-rule="nonzero"/></g></g></g></g><g clip-path="url(#e6c2f6c0c2)"><g clip-path="url(#ce848f3b93)"><g clip-path="url(#aaabf7aa12)"><g clip-path="url(#f58e6f9884)"><path fill="#000000" d="M 169.417969 221.386719 L 228.753906 221.914062 L 222.929688 226.71875 L 206.351562 240.390625 L 177.902344 263.859375 L 172.007812 268.71875 C 159.703125 278.871094 142.257812 279.941406 128.800781 271.371094 L 105.355469 256.441406 C 121.109375 261.59375 140.441406 262.851562 158.824219 250.542969 C 173.953125 240.414062 174.621094 230.222656 169.417969 221.386719 Z M 169.417969 221.386719 " fill-opacity="0.23" fill-rule="nonzero"/></g></g></g></g><g clip-path="url(#6b1aa9bb3d)"><g clip-path="url(#b5155df486)"><g clip-path="url(#750dcdff3c)"><g clip-path="url(#27d35691a4)"><path fill="#ffffff" d="M 159.453125 209.109375 L 135.613281 208.90625 L 114.722656 208.730469 L 88.191406 208.503906 C 84.242188 208.472656 81.023438 206.390625 79.214844 203.449219 Z M 159.453125 209.109375 " fill-opacity="0.32" fill-rule="nonzero"/></g></g></g></g><g clip-path="url(#2ae958ea09)"><g clip-path="url(#add0f0af88)"><g clip-path="url(#888847ef98)"><g clip-path="url(#ae68f34c23)"><path fill="#ffffff" d="M 148.167969 189.734375 L 145.351562 189.710938 L 131.414062 189.589844 L 116.734375 189.46875 L 98.082031 189.308594 C 95.773438 189.289062 93.816406 188.269531 92.488281 186.730469 C 91.722656 184.875 91.6875 182.707031 92.640625 180.695312 C 92.738281 180.488281 92.847656 180.289062 92.964844 180.085938 L 118.375 136.925781 C 120.945312 132.558594 126.824219 132.074219 130.140625 135.425781 C 130.335938 135.625 130.519531 135.832031 130.695312 136.0625 L 132.140625 138.609375 L 154.75 178.550781 C 157.59375 183.570312 153.9375 189.78125 148.167969 189.734375 Z M 148.167969 189.734375 " fill-opacity="0.18" fill-rule="nonzero"/></g></g></g></g><g clip-path="url(#80e581335d)"><g clip-path="url(#225be17109)"><g clip-path="url(#86fca026c0)"><g clip-path="url(#aa7d6b4ae5)"><path fill="#ffffff" d="M 149.203125 187.980469 L 132.445312 187.839844 L 117.761719 187.71875 L 99.117188 187.558594 C 96.804688 187.539062 94.847656 186.519531 93.523438 184.980469 C 92.753906 183.128906 92.714844 180.957031 93.671875 178.945312 C 93.769531 178.738281 93.878906 178.539062 93.996094 178.335938 L 119.40625 135.171875 C 121.980469 130.804688 127.859375 130.324219 131.171875 133.675781 C 131.371094 133.871094 131.554688 134.082031 131.730469 134.308594 L 133.171875 136.859375 L 155.78125 176.796875 C 158.625 181.820312 154.96875 188.03125 149.203125 187.980469 Z M 149.203125 187.980469 " fill-opacity="0.32" fill-rule="nonzero"/></g></g></g></g><g clip-path="url(#057242b96d)"><g clip-path="url(#3ee871e7e6)"><g clip-path="url(#84f41c012c)"><g clip-path="url(#cafd315456)"><g mask="url(#7fc85cc8fe)"><g transform="matrix(1, 0, 0, 1, 23, 54)"><g clip-path="url(#8f235e9b9d)"><g clip-path="url(#e5c902cb32)"><g clip-path="url(#b84f87da6b)"><g clip-path="url(#bda7595564)"><g clip-path="url(#405f88734c)"><path fill="#ffffff" d="M 43.960938 121.96875 L 43.960938 121.964844 C 43.964844 121.96875 43.964844 121.96875 43.960938 121.972656 C 43.960938 121.972656 43.960938 121.972656 43.960938 121.96875 Z M 43.960938 121.96875 " fill-opacity="1" fill-rule="nonzero"/></g></g></g></g><g clip-path="url(#a5ef730af8)"><g clip-path="url(#a3053f95b7)"><g clip-path="url(#9d6715b892)"><g clip-path="url(#b1ea78125b)"><path fill="#ffffff" d="M 42.828125 79.210938 C 42.722656 79.394531 42.582031 79.550781 42.410156 79.679688 C 42.242188 79.808594 42.054688 79.898438 41.847656 79.953125 C 41.640625 80.003906 41.433594 80.019531 41.222656 79.988281 C 41.011719 79.957031 40.8125 79.890625 40.628906 79.78125 C 40.445312 79.671875 40.289062 79.535156 40.160156 79.363281 C 40.03125 79.195312 39.941406 79.003906 39.886719 78.800781 C 39.835938 78.59375 39.824219 78.382812 39.851562 78.171875 C 39.882812 77.960938 39.953125 77.765625 40.058594 77.582031 C 40.167969 77.398438 40.308594 77.242188 40.476562 77.113281 C 40.648438 76.984375 40.835938 76.894531 41.042969 76.839844 C 41.246094 76.785156 41.457031 76.773438 41.667969 76.804688 C 41.878906 76.835938 42.074219 76.902344 42.261719 77.011719 C 42.445312 77.121094 42.597656 77.257812 42.726562 77.429688 C 42.855469 77.597656 42.945312 77.789062 43 77.992188 C 43.054688 78.199219 43.066406 78.410156 43.035156 78.621094 C 43.007812 78.832031 42.9375 79.027344 42.828125 79.210938 Z M 42.828125 79.210938 " fill-opacity="1" fill-rule="nonzero"/></g></g></g></g><g clip-path="url(#a3ebb594b9)"><g clip-path="url(#5e48a9954e)"><g clip-path="url(#029bc29646)"><g clip-path="url(#7248daa20a)"><path fill="#ffffff" d="M 43.757812 111.066406 C 43.519531 111.476562 43.210938 111.820312 42.832031 112.105469 C 42.453125 112.390625 42.039062 112.589844 41.578125 112.710938 C 41.121094 112.828125 40.660156 112.855469 40.191406 112.789062 C 39.722656 112.722656 39.285156 112.570312 38.878906 112.332031 C 38.472656 112.089844 38.125 111.78125 37.839844 111.40625 C 37.554688 111.027344 37.355469 110.609375 37.234375 110.152344 C 37.117188 109.695312 37.089844 109.230469 37.15625 108.765625 C 37.222656 108.296875 37.375 107.859375 37.613281 107.453125 C 37.855469 107.042969 38.164062 106.699219 38.539062 106.414062 C 38.917969 106.128906 39.335938 105.925781 39.792969 105.808594 C 40.25 105.691406 40.714844 105.664062 41.179688 105.730469 C 41.648438 105.796875 42.085938 105.949219 42.496094 106.1875 C 42.902344 106.429688 43.246094 106.738281 43.53125 107.113281 C 43.816406 107.492188 44.019531 107.910156 44.136719 108.367188 C 44.253906 108.824219 44.28125 109.285156 44.214844 109.753906 C 44.152344 110.222656 43.996094 110.660156 43.757812 111.066406 Z M 43.757812 111.066406 " fill-opacity="1" fill-rule="nonzero"/></g></g></g></g><g clip-path="url(#d09b5eefed)"><g clip-path="url(#5199d6e643)"><g clip-path="url(#482a880f47)"><g clip-path="url(#2eb092777d)"><path fill="#ffffff" d="M 13.5625 134.929688 C 13.300781 135.378906 12.960938 135.757812 12.546875 136.070312 C 12.132812 136.382812 11.675781 136.605469 11.171875 136.734375 C 10.667969 136.863281 10.160156 136.894531 9.648438 136.820312 C 9.132812 136.75 8.652344 136.582031 8.207031 136.320312 C 7.757812 136.054688 7.378906 135.714844 7.066406 135.300781 C 6.753906 134.886719 6.53125 134.429688 6.402344 133.925781 C 6.273438 133.425781 6.242188 132.917969 6.316406 132.402344 C 6.386719 131.886719 6.554688 131.40625 6.816406 130.960938 C 7.082031 130.511719 7.421875 130.132812 7.835938 129.820312 C 8.25 129.507812 8.707031 129.285156 9.210938 129.15625 C 9.710938 129.027344 10.222656 128.996094 10.734375 129.070312 C 11.25 129.140625 11.730469 129.308594 12.175781 129.574219 C 12.625 129.835938 13.003906 130.175781 13.316406 130.589844 C 13.628906 131.003906 13.851562 131.460938 13.980469 131.964844 C 14.109375 132.46875 14.140625 132.976562 14.066406 133.488281 C 13.996094 134.003906 13.828125 134.484375 13.5625 134.929688 Z M 13.5625 134.929688 " fill-opacity="1" fill-rule="nonzero"/></g></g></g></g><g clip-path="url(#3329f174c6)"><g clip-path="url(#027c03515d)"><g clip-path="url(#08b2c3dbd0)"><g clip-path="url(#32eb40c543)"><path fill="#ffffff" d="M 116.324219 202.085938 C 116.203125 202.292969 116.042969 202.472656 115.851562 202.617188 C 115.65625 202.761719 115.441406 202.867188 115.207031 202.925781 C 114.972656 202.988281 114.738281 203 114.496094 202.96875 C 114.257812 202.933594 114.03125 202.855469 113.824219 202.734375 C 113.613281 202.609375 113.4375 202.453125 113.292969 202.257812 C 113.144531 202.066406 113.042969 201.851562 112.980469 201.617188 C 112.921875 201.382812 112.90625 201.144531 112.941406 200.90625 C 112.976562 200.664062 113.054688 200.441406 113.175781 200.230469 C 113.300781 200.023438 113.457031 199.847656 113.652344 199.699219 C 113.84375 199.554688 114.058594 199.453125 114.292969 199.390625 C 114.527344 199.328125 114.765625 199.316406 115.003906 199.351562 C 115.242188 199.382812 115.46875 199.460938 115.675781 199.585938 C 115.886719 199.707031 116.0625 199.867188 116.207031 200.058594 C 116.355469 200.253906 116.457031 200.464844 116.519531 200.703125 C 116.578125 200.9375 116.59375 201.171875 116.558594 201.414062 C 116.527344 201.652344 116.445312 201.878906 116.324219 202.085938 Z M 116.324219 202.085938 " fill-opacity="1" fill-rule="nonzero"/></g></g></g></g><g clip-path="url(#83dcf5fceb)"><g clip-path="url(#deb27cc3fb)"><g clip-path="url(#b51dc13c82)"><g clip-path="url(#ba766c5607)"><path fill="#ffffff" d="M 157.730469 182.59375 C 157.636719 182.757812 157.511719 182.898438 157.359375 183.011719 C 157.207031 183.125 157.039062 183.207031 156.855469 183.253906 C 156.671875 183.304688 156.484375 183.3125 156.296875 183.285156 C 156.109375 183.261719 155.929688 183.199219 155.765625 183.101562 C 155.601562 183.007812 155.464844 182.882812 155.347656 182.730469 C 155.234375 182.578125 155.152344 182.410156 155.105469 182.226562 C 155.058594 182.042969 155.046875 181.855469 155.074219 181.667969 C 155.101562 181.476562 155.164062 181.300781 155.257812 181.136719 C 155.355469 180.972656 155.480469 180.835938 155.632812 180.71875 C 155.785156 180.605469 155.953125 180.523438 156.136719 180.476562 C 156.320312 180.429688 156.507812 180.417969 156.695312 180.445312 C 156.882812 180.472656 157.058594 180.53125 157.222656 180.628906 C 157.386719 180.726562 157.527344 180.851562 157.640625 181 C 157.757812 181.152344 157.835938 181.320312 157.886719 181.507812 C 157.933594 181.691406 157.941406 181.875 157.917969 182.066406 C 157.890625 182.253906 157.828125 182.429688 157.730469 182.59375 Z M 157.730469 182.59375 " fill-opacity="1" fill-rule="nonzero"/></g></g></g></g><g clip-path="url(#78e1c4e1dc)"><g clip-path="url(#a2ce9c02d1)"><g clip-path="url(#b69187a875)"><g clip-path="url(#12de21d7c5)"><path fill="#ffffff" d="M 145.652344 214.421875 C 145.511719 214.664062 145.34375 214.890625 145.15625 215.101562 C 144.96875 215.3125 144.761719 215.503906 144.535156 215.675781 C 144.308594 215.84375 144.070312 215.992188 143.816406 216.113281 C 143.558594 216.238281 143.296875 216.335938 143.023438 216.40625 C 142.75 216.476562 142.46875 216.519531 142.1875 216.535156 C 141.90625 216.550781 141.625 216.539062 141.34375 216.5 C 141.066406 216.460938 140.792969 216.394531 140.523438 216.300781 C 140.257812 216.207031 140.003906 216.089844 139.757812 215.945312 C 139.515625 215.804688 139.289062 215.636719 139.078125 215.449219 C 138.867188 215.261719 138.675781 215.054688 138.503906 214.828125 C 138.335938 214.601562 138.1875 214.363281 138.066406 214.109375 C 137.941406 213.855469 137.847656 213.589844 137.773438 213.316406 C 137.703125 213.042969 137.660156 212.765625 137.644531 212.480469 C 137.628906 212.199219 137.640625 211.917969 137.679688 211.636719 C 137.71875 211.359375 137.785156 211.085938 137.878906 210.816406 C 137.972656 210.550781 138.089844 210.296875 138.234375 210.050781 C 138.375 209.808594 138.542969 209.582031 138.730469 209.371094 C 138.917969 209.160156 139.125 208.96875 139.351562 208.800781 C 139.578125 208.628906 139.816406 208.480469 140.070312 208.359375 C 140.328125 208.238281 140.589844 208.140625 140.863281 208.070312 C 141.136719 207.996094 141.414062 207.953125 141.699219 207.9375 C 141.980469 207.921875 142.261719 207.933594 142.542969 207.972656 C 142.820312 208.011719 143.09375 208.078125 143.363281 208.171875 C 143.628906 208.265625 143.882812 208.382812 144.128906 208.527344 C 144.371094 208.667969 144.597656 208.835938 144.808594 209.023438 C 145.019531 209.210938 145.210938 209.417969 145.382812 209.644531 C 145.550781 209.871094 145.699219 210.109375 145.820312 210.367188 C 145.945312 210.621094 146.039062 210.882812 146.113281 211.15625 C 146.183594 211.429688 146.226562 211.710938 146.242188 211.992188 C 146.257812 212.273438 146.246094 212.554688 146.207031 212.835938 C 146.167969 213.113281 146.101562 213.386719 146.007812 213.65625 C 145.914062 213.921875 145.796875 214.175781 145.652344 214.421875 Z M 145.652344 214.421875 " fill-opacity="1" fill-rule="nonzero"/></g></g></g></g><g clip-path="url(#2cfbd6c6ee)"><g clip-path="url(#d8a43c09e1)"><g clip-path="url(#15e6ab778f)"><g clip-path="url(#e99d465bbd)"><path fill="#ffffff" d="M 81.761719 187.25 C 81.632812 187.472656 81.46875 187.65625 81.265625 187.808594 C 81.0625 187.964844 80.835938 188.070312 80.589844 188.136719 C 80.34375 188.199219 80.09375 188.214844 79.84375 188.179688 C 79.589844 188.144531 79.355469 188.0625 79.136719 187.929688 C 78.917969 187.800781 78.730469 187.636719 78.578125 187.433594 C 78.425781 187.230469 78.316406 187.003906 78.253906 186.757812 C 78.1875 186.511719 78.175781 186.261719 78.210938 186.011719 C 78.246094 185.761719 78.328125 185.523438 78.457031 185.304688 C 78.585938 185.085938 78.75 184.898438 78.953125 184.746094 C 79.15625 184.59375 79.382812 184.484375 79.628906 184.421875 C 79.875 184.355469 80.125 184.34375 80.375 184.378906 C 80.628906 184.414062 80.863281 184.496094 81.082031 184.625 C 81.300781 184.753906 81.488281 184.921875 81.640625 185.125 C 81.792969 185.328125 81.902344 185.550781 81.96875 185.796875 C 82.03125 186.042969 82.046875 186.292969 82.007812 186.542969 C 81.972656 186.796875 81.890625 187.03125 81.761719 187.25 Z M 81.761719 187.25 " fill-opacity="1" fill-rule="nonzero"/></g></g></g></g><g clip-path="url(#a002ff9511)"><g clip-path="url(#bd65121971)"><g clip-path="url(#e92e1db1b5)"><g clip-path="url(#05e21c3cbf)"><path fill="#ffffff" d="M 139.015625 36.152344 C 138.90625 36.34375 138.761719 36.507812 138.582031 36.640625 C 138.40625 36.773438 138.210938 36.867188 137.996094 36.925781 C 137.78125 36.980469 137.5625 36.992188 137.34375 36.960938 C 137.125 36.929688 136.917969 36.859375 136.726562 36.746094 C 136.535156 36.632812 136.375 36.488281 136.242188 36.3125 C 136.105469 36.136719 136.011719 35.9375 135.957031 35.722656 C 135.902344 35.507812 135.890625 35.292969 135.921875 35.074219 C 135.949219 34.851562 136.023438 34.648438 136.136719 34.457031 C 136.246094 34.265625 136.390625 34.101562 136.570312 33.96875 C 136.746094 33.835938 136.941406 33.742188 137.15625 33.6875 C 137.371094 33.628906 137.589844 33.617188 137.808594 33.648438 C 138.027344 33.679688 138.234375 33.75 138.425781 33.863281 C 138.617188 33.976562 138.777344 34.121094 138.910156 34.296875 C 139.046875 34.476562 139.140625 34.671875 139.195312 34.886719 C 139.25 35.101562 139.261719 35.316406 139.230469 35.539062 C 139.203125 35.757812 139.128906 35.960938 139.015625 36.152344 Z M 139.015625 36.152344 " fill-opacity="1" fill-rule="nonzero"/></g></g></g></g><g clip-path="url(#43cead31f5)"><g clip-path="url(#f8aef39069)"><g clip-path="url(#c699b3d42a)"><g clip-path="url(#d5ade5e68c)"><path fill="#ffffff" d="M 155.464844 81.566406 C 155.332031 81.789062 155.164062 81.976562 154.957031 82.132812 C 154.75 82.289062 154.523438 82.398438 154.273438 82.464844 C 154.023438 82.527344 153.769531 82.542969 153.515625 82.507812 C 153.257812 82.472656 153.019531 82.386719 152.796875 82.257812 C 152.574219 82.125 152.382812 81.957031 152.230469 81.75 C 152.074219 81.542969 151.964844 81.316406 151.898438 81.066406 C 151.832031 80.816406 151.820312 80.5625 151.855469 80.308594 C 151.890625 80.050781 151.972656 79.8125 152.105469 79.589844 C 152.238281 79.367188 152.40625 79.179688 152.613281 79.023438 C 152.816406 78.867188 153.046875 78.757812 153.296875 78.691406 C 153.546875 78.628906 153.800781 78.613281 154.054688 78.648438 C 154.3125 78.683594 154.550781 78.769531 154.773438 78.898438 C 154.996094 79.03125 155.183594 79.199219 155.339844 79.40625 C 155.496094 79.613281 155.605469 79.839844 155.671875 80.089844 C 155.734375 80.339844 155.75 80.59375 155.714844 80.847656 C 155.679688 81.105469 155.59375 81.34375 155.464844 81.566406 Z M 155.464844 81.566406 " fill-opacity="1" fill-rule="nonzero"/></g></g></g></g><g clip-path="url(#26e228fd3d)"><g clip-path="url(#48f433b446)"><g clip-path="url(#7ffbb6bfb6)"><g clip-path="url(#5591341575)"><path fill="#ffffff" d="M 168.667969 122.6875 C 168.570312 122.859375 168.421875 122.96875 168.230469 123.019531 C 168.039062 123.066406 167.855469 123.042969 167.6875 122.941406 C 167.515625 122.839844 167.40625 122.695312 167.355469 122.503906 C 167.304688 122.3125 167.332031 122.128906 167.433594 121.957031 C 167.53125 121.789062 167.679688 121.679688 167.871094 121.628906 C 168.0625 121.578125 168.242188 121.605469 168.414062 121.703125 C 168.585938 121.804688 168.695312 121.953125 168.746094 122.144531 C 168.792969 122.335938 168.769531 122.515625 168.667969 122.6875 Z M 168.667969 122.6875 " fill-opacity="1" fill-rule="nonzero"/></g></g></g></g><g clip-path="url(#d87543a620)"><g clip-path="url(#664f32975e)"><g clip-path="url(#19059cb0ab)"><g clip-path="url(#cf2580cefa)"><path fill="#ffffff" d="M 129.375 53.085938 C 129.136719 53.496094 128.824219 53.84375 128.445312 54.128906 C 128.066406 54.414062 127.644531 54.617188 127.1875 54.738281 C 126.726562 54.855469 126.261719 54.882812 125.789062 54.816406 C 125.316406 54.75 124.878906 54.597656 124.46875 54.355469 C 124.058594 54.113281 123.710938 53.804688 123.425781 53.425781 C 123.136719 53.042969 122.9375 52.625 122.816406 52.164062 C 122.699219 51.703125 122.671875 51.238281 122.738281 50.769531 C 122.804688 50.296875 122.957031 49.855469 123.199219 49.449219 C 123.4375 49.039062 123.75 48.691406 124.128906 48.402344 C 124.507812 48.117188 124.929688 47.914062 125.390625 47.796875 C 125.847656 47.675781 126.316406 47.648438 126.785156 47.714844 C 127.257812 47.78125 127.695312 47.9375 128.105469 48.175781 C 128.515625 48.417969 128.863281 48.726562 129.148438 49.109375 C 129.4375 49.488281 129.636719 49.90625 129.757812 50.367188 C 129.875 50.828125 129.902344 51.292969 129.835938 51.765625 C 129.769531 52.234375 129.617188 52.675781 129.375 53.085938 Z M 129.375 53.085938 " fill-opacity="1" fill-rule="nonzero"/></g></g></g></g><g clip-path="url(#76daf9551b)"><g clip-path="url(#bf1a76149c)"><g clip-path="url(#4a9db4b21f)"><g clip-path="url(#8cada2fc85)"><path fill="#ffffff" d="M 141.234375 86.453125 C 141.101562 86.679688 140.925781 86.875 140.714844 87.039062 C 140.5 87.199219 140.265625 87.3125 140.007812 87.378906 C 139.75 87.445312 139.488281 87.460938 139.222656 87.421875 C 138.960938 87.386719 138.710938 87.300781 138.484375 87.164062 C 138.253906 87.027344 138.058594 86.855469 137.898438 86.640625 C 137.738281 86.429688 137.625 86.195312 137.554688 85.9375 C 137.488281 85.675781 137.476562 85.417969 137.511719 85.152344 C 137.550781 84.886719 137.636719 84.640625 137.769531 84.410156 C 137.90625 84.183594 138.078125 83.988281 138.292969 83.828125 C 138.503906 83.664062 138.742188 83.550781 139 83.484375 C 139.257812 83.417969 139.519531 83.402344 139.78125 83.441406 C 140.046875 83.476562 140.292969 83.5625 140.523438 83.699219 C 140.753906 83.835938 140.949219 84.007812 141.109375 84.222656 C 141.269531 84.433594 141.382812 84.667969 141.449219 84.929688 C 141.515625 85.1875 141.53125 85.445312 141.492188 85.710938 C 141.457031 85.976562 141.371094 86.222656 141.234375 86.453125 Z M 141.234375 86.453125 " fill-opacity="1" fill-rule="nonzero"/></g></g></g></g></g></g></g></g></g></g></g><g clip-path="url(#fdc923df0a)"><g clip-path="url(#ae640d562d)"><g clip-path="url(#7ac0d36b65)"><g clip-path="url(#dd7995df00)"><g mask="url(#c1e7aaa47d)"><g transform="matrix(1, 0, 0, 1, 89, 151)"><g clip-path="url(#206df15125)"><g clip-path="url(#8f6a3aacba)"><g clip-path="url(#38388b89c7)"><g clip-path="url(#9b13fe6d55)"><g clip-path="url(#5010d510c5)"><path fill="#ffffff" d="M 20.601562 0.828125 L 3.964844 29.085938 C 3.847656 29.289062 3.738281 29.488281 3.640625 29.695312 C 2.6875 31.707031 2.722656 33.875 3.488281 35.730469 C 4.816406 37.269531 6.773438 38.289062 9.082031 38.308594 L 27.734375 38.46875 L 36.609375 38.542969 C 12.570312 35.621094 14.414062 15.074219 20.601562 0.828125 Z M 20.601562 0.828125 " fill-opacity="0.32" fill-rule="nonzero"/></g></g></g></g></g></g></g></g></g></g></g><g clip-path="url(#87549df932)"><g clip-path="url(#16422f62d6)"><g clip-path="url(#196560b409)"><g clip-path="url(#807a70d20b)"><path fill="#ffffff" d="M 159.445312 209.109375 L 135.613281 208.910156 L 114.722656 208.730469 L 88.191406 208.503906 C 84.898438 208.480469 82.113281 207.023438 80.230469 204.835938 C 79.140625 202.199219 79.082031 199.109375 80.445312 196.25 C 80.582031 195.957031 80.734375 195.671875 80.90625 195.382812 L 83.535156 190.917969 C 85.429688 195.261719 88.859375 199.90625 95.03125 201.367188 C 107.5 204.324219 158.648438 209.035156 159.445312 209.109375 Z M 159.445312 209.109375 " fill-opacity="0.32" fill-rule="nonzero"/></g></g></g></g><g fill="#ffae00" fill-opacity="1"><g transform="translate(217.24625, 210.484906)"><g><path d="M 33.828125 -46.59375 L 33.828125 -41.65625 L 21.125 -41.65625 L 21.125 0 L 15.046875 0 L 15.046875 -41.65625 L 2.265625 -41.65625 L 2.265625 -46.59375 Z M 33.828125 -46.59375 "/></g></g></g><g fill="#ffae00" fill-opacity="1"><g transform="translate(251.407371, 210.484906)"><g><path d="M 11.234375 -41.65625 L 11.234375 -26.078125 L 28.21875 -26.078125 L 28.21875 -21.0625 L 11.234375 -21.0625 L 11.234375 -5.015625 L 30.21875 -5.015625 L 30.21875 0 L 5.140625 0 L 5.140625 -46.671875 L 30.21875 -46.671875 L 30.21875 -41.65625 Z M 11.234375 -41.65625 "/></g></g></g><g fill="#ffae00" fill-opacity="1"><g transform="translate(283.696631, 210.484906)"><g><path d="M 2.875 -23.328125 C 2.875 -27.878906 3.898438 -31.96875 5.953125 -35.59375 C 8.003906 -39.226562 10.800781 -42.070312 14.34375 -44.125 C 17.882812 -46.175781 21.816406 -47.203125 26.140625 -47.203125 C 31.222656 -47.203125 35.65625 -45.972656 39.4375 -43.515625 C 43.226562 -41.066406 45.992188 -37.59375 47.734375 -33.09375 L 40.453125 -33.09375 C 39.160156 -35.90625 37.296875 -38.066406 34.859375 -39.578125 C 32.429688 -41.097656 29.523438 -41.859375 26.140625 -41.859375 C 22.890625 -41.859375 19.96875 -41.097656 17.375 -39.578125 C 14.789062 -38.066406 12.765625 -35.914062 11.296875 -33.125 C 9.828125 -30.34375 9.09375 -27.078125 9.09375 -23.328125 C 9.09375 -19.628906 9.828125 -16.382812 11.296875 -13.59375 C 12.765625 -10.8125 14.789062 -8.660156 17.375 -7.140625 C 19.96875 -5.628906 22.890625 -4.875 26.140625 -4.875 C 29.523438 -4.875 32.429688 -5.617188 34.859375 -7.109375 C 37.296875 -8.609375 39.160156 -10.765625 40.453125 -13.578125 L 47.734375 -13.578125 C 45.992188 -9.117188 43.226562 -5.671875 39.4375 -3.234375 C 35.65625 -0.804688 31.222656 0.40625 26.140625 0.40625 C 21.816406 0.40625 17.882812 -0.609375 14.34375 -2.640625 C 10.800781 -4.671875 8.003906 -7.488281 5.953125 -11.09375 C 3.898438 -14.707031 2.875 -18.785156 2.875 -23.328125 Z M 2.875 -23.328125 "/></g></g></g><g fill="#ffae00" fill-opacity="1"><g transform="translate(333.300599, 210.484906)"><g><path d="M 41.046875 -46.59375 L 41.046875 0 L 34.96875 0 L 34.96875 -21.125 L 11.234375 -21.125 L 11.234375 0 L 5.140625 0 L 5.140625 -46.59375 L 11.234375 -46.59375 L 11.234375 -26.140625 L 34.96875 -26.140625 L 34.96875 -46.59375 Z M 41.046875 -46.59375 "/></g></g></g><g fill="#058468" fill-opacity="1"><g transform="translate(217.24625, 210.563022)"><g><path d="M 6.578125 -33.765625 C 5.648438 -33.765625 4.867188 -34.082031 4.234375 -34.71875 C 3.597656 -35.351562 3.28125 -36.128906 3.28125 -37.046875 C 3.28125 -37.960938 3.597656 -38.738281 4.234375 -39.375 C 4.867188 -40.007812 5.648438 -40.328125 6.578125 -40.328125 C 7.453125 -40.328125 8.195312 -40.007812 8.8125 -39.375 C 9.4375 -38.738281 9.75 -37.960938 9.75 -37.046875 C 9.75 -36.128906 9.4375 -35.351562 8.8125 -34.71875 C 8.195312 -34.082031 7.453125 -33.765625 6.578125 -33.765625 Z M 8.90625 -29.046875 L 8.90625 0 L 4.078125 0 L 4.078125 -29.046875 Z M 8.90625 -29.046875 "/></g></g></g></svg>