<svg xmlns="http://www.w3.org/2000/svg" xmlns:xlink="http://www.w3.org/1999/xlink" width="1000" zoomAndPan="magnify" viewBox="0 0 750 749.999995" height="1000" preserveAspectRatio="xMidYMid meet" version="1.0"><defs><g/></defs><g fill="#ffae00" fill-opacity="1"><g transform="translate(29.653002, 494.624996)"><g><path d="M 69.75 0 L 69.75 -196.3125 L 3.90625 -196.3125 L 3.90625 -221.578125 L 162.953125 -221.578125 L 162.953125 -196.3125 L 97.109375 -196.3125 L 97.109375 0 Z M 69.75 0 "/></g></g></g><g fill="#ffae00" fill-opacity="1"><g transform="translate(177.87038, 494.624996)"><g><path d="M 26.15625 0 L 26.15625 -221.578125 L 172.265625 -221.578125 L 172.265625 -196.3125 L 53.515625 -196.3125 L 53.515625 -128.96875 L 159.640625 -128.96875 L 159.640625 -104.015625 L 53.515625 -104.015625 L 53.515625 -25.25 L 172.265625 -25.25 L 172.265625 0 Z M 26.15625 0 "/></g></g></g><g fill="#ffae00" fill-opacity="1"><g transform="translate(347.132869, 494.624996)"><g><path d="M 52.015625 0 L 20.4375 -31.5625 L 20.4375 -190 L 52.015625 -221.578125 L 152.125 -221.578125 L 182.796875 -190.90625 L 165.359375 -173.171875 L 141.296875 -197.21875 L 64.34375 -197.21875 L 47.796875 -180.6875 L 47.796875 -40.890625 L 64.34375 -24.359375 L 143.703125 -24.359375 L 168.0625 -48.703125 L 185.5 -30.96875 L 154.234375 0 Z M 52.015625 0 "/></g></g></g><g fill="#ffae00" fill-opacity="1"><g transform="translate(523.00951, 494.624996)"><g><path d="M 26.15625 0 L 26.15625 -221.578125 L 53.515625 -221.578125 L 53.515625 -128.671875 L 163.25 -128.671875 L 163.25 -221.578125 L 190.609375 -221.578125 L 190.609375 0 L 163.25 0 L 163.25 -104.328125 L 53.515625 -104.328125 L 53.515625 0 Z M 26.15625 0 "/></g></g></g><g fill="#00745b" fill-opacity="1"><g transform="translate(0.00000265, 494.531098)"><g><path d="M 21.71875 -157.578125 C 21.71875 -163.816406 23.875 -169.070312 28.1875 -173.34375 C 32.5 -177.625 37.773438 -179.765625 44.015625 -179.765625 C 50.097656 -179.765625 55.273438 -177.625 59.546875 -173.34375 C 63.828125 -169.070312 65.96875 -163.816406 65.96875 -157.578125 C 65.96875 -151.492188 63.828125 -146.316406 59.546875 -142.046875 C 55.273438 -137.773438 50.097656 -135.640625 44.015625 -135.640625 C 37.773438 -135.640625 32.5 -137.753906 28.1875 -141.984375 C 23.875 -146.222656 21.71875 -151.421875 21.71875 -157.578125 Z M 66.4375 -13.984375 L 83.984375 -13.984375 L 83.984375 0 L 8.09375 0 L 8.09375 -13.984375 L 25.53125 -13.984375 L 25.53125 -108.828125 L 8.09375 -108.828125 L 8.09375 -122.8125 L 66.4375 -122.8125 Z M 66.4375 -13.984375 "/></g></g></g></svg>