<svg xmlns="http://www.w3.org/2000/svg" xmlns:xlink="http://www.w3.org/1999/xlink" width="1000" zoomAndPan="magnify" viewBox="0 0 750 749.999995" height="1000" preserveAspectRatio="xMidYMid meet" version="1.0"><defs><filter x="0%" y="0%" width="100%" height="100%" id="c2c39cc378"><feColorMatrix values="0 0 0 0 1 0 0 0 0 1 0 0 0 0 1 0 0 0 1 0" color-interpolation-filters="sRGB"/></filter><mask id="139dd8969b"><g filter="url(#c2c39cc378)"><rect x="-75" width="900" fill="#000000" y="-74.999999" height="899.999994" fill-opacity="0.23"/></g></mask><clipPath id="77bf7c5295"><path d="M 0.601562 172 L 22 172 L 22 245.519531 L 0.601562 245.519531 Z M 0.601562 172 " clip-rule="nonzero"/></clipPath><clipPath id="84c14eb6c5"><path d="M 51 1 L 208.441406 1 L 208.441406 121 L 51 121 Z M 51 1 " clip-rule="nonzero"/></clipPath><clipPath id="418504a280"><rect x="0" width="209" y="0" height="246"/></clipPath><mask id="3659591ac3"><g filter="url(#c2c39cc378)"><rect x="-75" width="900" fill="#000000" y="-74.999999" height="899.999994" fill-opacity="0.32"/></g></mask><clipPath id="42a26dd5b3"><path d="M 436 458 L 460 458 L 460 482.199219 L 436 482.199219 Z M 436 458 " clip-rule="nonzero"/></clipPath><clipPath id="a700c6c61f"><rect x="0" width="486" y="0" height="483"/></clipPath><mask id="2b7c5e7599"><g filter="url(#c2c39cc378)"><rect x="-75" width="900" fill="#000000" y="-74.999999" height="899.999994" fill-opacity="0.77"/></g></mask><clipPath id="e257dd9ac6"><rect x="0" width="119" y="0" height="100"/></clipPath><clipPath id="44546f959a"><path d="M 354.945312 249.832031 L 362.355469 249.832031 L 362.355469 257.238281 L 354.945312 257.238281 Z M 354.945312 249.832031 " clip-rule="nonzero"/></clipPath><clipPath id="afbebd6ff9"><path d="M 358.652344 249.832031 C 356.605469 249.832031 354.945312 251.488281 354.945312 253.535156 C 354.945312 255.582031 356.605469 257.238281 358.652344 257.238281 C 360.699219 257.238281 362.355469 255.582031 362.355469 253.535156 C 362.355469 251.488281 360.699219 249.832031 358.652344 249.832031 Z M 358.652344 249.832031 " clip-rule="nonzero"/></clipPath></defs><path fill="#000000" d="M 357.230469 143.816406 L 134.347656 529.855469 L 580.117188 529.855469 Z M 357.230469 143.816406 " fill-opacity="1" fill-rule="nonzero"/><path fill="#d11d4d" d="M 384.621094 263.277344 L 419.992188 324.539062 L 450.992188 378.222656 L 490.355469 446.410156 C 495.238281 454.867188 495.714844 464.175781 492.949219 472.285156 C 492.414062 473.90625 491.738281 475.472656 490.9375 476.976562 C 486.175781 485.996094 477.148438 492.734375 465.867188 493.730469 C 464.917969 493.816406 463.949219 493.851562 462.964844 493.851562 L 251.5 493.851562 C 230.101562 493.851562 215.757812 473.5 220.855469 454.25 C 221.558594 451.59375 222.632812 448.953125 224.109375 446.402344 C 224.109375 446.402344 224.117188 446.390625 224.125 446.375 L 226.765625 441.800781 L 232.953125 431.082031 L 329.84375 263.265625 C 342.011719 242.175781 372.445312 242.175781 384.621094 263.277344 Z M 384.621094 263.277344 " fill-opacity="1" fill-rule="nonzero"/><path fill="#ffae00" d="M 384.621094 263.277344 C 384.621094 263.277344 384.621094 263.285156 384.632812 263.300781 L 420 324.539062 L 450.992188 378.222656 L 490.355469 446.410156 C 495.246094 454.867188 495.714844 464.175781 492.960938 472.285156 C 487.855469 479.042969 480.042969 483.839844 470.671875 484.667969 C 469.722656 484.746094 468.753906 484.789062 467.769531 484.789062 L 256.292969 484.789062 C 234.894531 484.789062 220.554688 464.4375 225.648438 445.1875 C 225.957031 444.0625 226.316406 442.925781 226.765625 441.808594 L 232.953125 431.089844 L 329.84375 263.277344 C 342.011719 242.175781 372.453125 242.175781 384.621094 263.277344 Z M 384.621094 263.277344 " fill-opacity="1" fill-rule="nonzero"/><path fill="#000000" d="M 335 137.289062 L 100.53125 261.9375 C 59.46875 283.769531 33.960938 326.203125 33.960938 372.679688 C 33.960938 379.964844 34.605469 387.308594 35.871094 394.507812 L 81.511719 653.246094 L 139.808594 552.378906 L 365 693.105469 C 387.621094 707.234375 413.640625 713.730469 440.238281 711.863281 C 466.84375 710.007812 491.703125 699.960938 512.132812 682.8125 L 713.390625 513.921875 L 596.890625 513.867188 L 606.164062 248.496094 C 606.214844 247.035156 606.242188 245.546875 606.242188 244.085938 C 606.242188 218.253906 598.410156 193.40625 583.601562 172.21875 C 568.757812 150.988281 548.039062 135.082031 523.691406 126.21875 L 276.804688 36.367188 Z M 552.175781 513.851562 L 162.175781 513.675781 L 357.328125 176.019531 Z M 552.175781 513.851562 " fill-opacity="1" fill-rule="nonzero"/><path fill="#ffae00" d="M 108.144531 276.246094 L 357.230469 143.816406 L 357.222656 143.84375 L 89.746094 606.632812 L 86.65625 589.105469 L 51.839844 391.699219 C 43.613281 345.078125 66.339844 298.46875 108.144531 276.246094 Z M 108.144531 276.246094 " fill-opacity="1" fill-rule="nonzero"/><path fill="#d11d4d" d="M 313.046875 66.804688 L 337.109375 75.558594 L 518.140625 141.441406 C 562.628906 157.621094 591.628906 200.621094 589.972656 247.921875 L 580.117188 529.855469 L 580.082031 529.804688 Z M 313.046875 66.804688 " fill-opacity="1" fill-rule="nonzero"/><path fill="#00ffc7" d="M 134.355469 529.863281 L 492.835938 530.023438 L 668.90625 530.101562 L 651.75 544.503906 L 602.898438 585.488281 L 519.074219 655.835938 L 501.714844 670.40625 C 465.457031 700.832031 413.726562 704.445312 373.578125 679.363281 L 303.640625 635.652344 Z M 134.355469 529.863281 " fill-opacity="1" fill-rule="nonzero"/><path fill="#000000" d="M 134.355469 529.863281 L 602.90625 585.488281 L 519.082031 655.835938 L 501.722656 670.40625 C 465.464844 700.832031 413.738281 704.445312 373.589844 679.363281 Z M 134.355469 529.863281 " fill-opacity="0.23" fill-rule="nonzero"/><path fill="#000000" d="M 134.355469 529.863281 L 519.074219 655.835938 L 501.714844 670.40625 C 465.457031 700.832031 413.726562 704.445312 373.582031 679.363281 Z M 134.355469 529.863281 " fill-opacity="0.23" fill-rule="nonzero"/><path fill="#000000" d="M 357.230469 143.816406 L 74.777344 521.777344 L 55.765625 414.011719 L 51.824219 391.691406 C 43.605469 345.078125 66.332031 298.46875 108.136719 276.246094 Z M 357.230469 143.816406 " fill-opacity="0.23" fill-rule="nonzero"/><path fill="#000000" d="M 357.230469 143.816406 L 55.773438 414.011719 L 51.832031 391.691406 C 43.613281 345.078125 66.339844 298.46875 108.144531 276.246094 Z M 357.230469 143.816406 " fill-opacity="0.23" fill-rule="nonzero"/><path fill="#000000" d="M 580.117188 529.863281 L 394.019531 96.277344 L 496.859375 133.699219 L 518.160156 141.449219 C 562.636719 157.640625 591.636719 200.628906 589.980469 247.941406 Z M 580.117188 529.863281 " fill-opacity="0.23" fill-rule="nonzero"/><path fill="#000000" d="M 580.117188 529.863281 L 496.847656 133.699219 L 518.148438 141.449219 C 562.628906 157.640625 591.628906 200.628906 589.972656 247.941406 Z M 580.117188 529.863281 " fill-opacity="0.23" fill-rule="nonzero"/><path fill="#ffffff" d="M 357.222656 143.816406 L 357.214844 143.84375 L 89.746094 606.632812 L 86.648438 589.097656 Z M 357.222656 143.816406 " fill-opacity="0.46" fill-rule="nonzero"/><path fill="#ffffff" d="M 134.355469 529.863281 L 668.90625 530.101562 L 651.75 544.503906 Z M 134.355469 529.863281 " fill-opacity="0.46" fill-rule="nonzero"/><path fill="#ffffff" d="M 313.046875 66.804688 L 337.109375 75.558594 L 580.117188 529.855469 L 580.082031 529.804688 Z M 313.046875 66.804688 " fill-opacity="0.46" fill-rule="nonzero"/><g mask="url(#139dd8969b)"><g transform="matrix(1, 0, 0, 1, 219, 246)"><g clip-path="url(#418504a280)"><g clip-path="url(#77bf7c5295)"><path fill="#000000" d="M 15.414062 211.707031 C 15.414062 198.035156 17.460938 184.84375 21.261719 172.421875 L 13.953125 185.082031 L 5.125 200.375 C 5.117188 200.390625 5.109375 200.402344 5.109375 200.402344 C 3.632812 202.960938 2.558594 205.59375 1.855469 208.25 C -2.132812 223.296875 5.769531 239.007812 19.617188 245.160156 C 16.871094 234.46875 15.414062 223.261719 15.414062 211.707031 Z M 15.414062 211.707031 " fill-opacity="1" fill-rule="nonzero"/></g><g clip-path="url(#84c14eb6c5)"><path fill="#000000" d="M 110.84375 17.277344 L 51.335938 120.332031 C 75.839844 93.992188 110.808594 77.503906 149.625 77.503906 C 170.601562 77.503906 190.441406 82.316406 208.128906 90.894531 L 201 78.550781 L 165.632812 17.285156 C 153.445312 -3.824219 123.011719 -3.824219 110.84375 17.277344 Z M 110.84375 17.277344 " fill-opacity="1" fill-rule="nonzero"/></g></g></g></g><path fill="#000000" d="M 411.75 493.859375 L 462.964844 493.859375 C 463.949219 493.859375 464.917969 493.816406 465.867188 493.738281 C 488.488281 491.742188 502.03125 466.648438 490.355469 446.417969 L 470.164062 411.445312 C 464.488281 447.085938 442.332031 477.242188 411.75 493.859375 Z M 411.75 493.859375 " fill-opacity="0.23" fill-rule="nonzero"/><path fill="#000000" d="M 492.835938 530.023438 L 668.90625 530.101562 L 651.75 544.503906 L 602.898438 585.488281 L 519.074219 655.835938 L 501.714844 670.40625 C 465.457031 700.832031 413.726562 704.445312 373.578125 679.363281 L 303.640625 635.652344 C 350.519531 650.546875 407.902344 653.785156 462.136719 616.804688 C 506.773438 586.378906 508.496094 556.109375 492.835938 530.023438 Z M 492.835938 530.023438 " fill-opacity="0.23" fill-rule="nonzero"/><path fill="#000000" d="M 177.847656 454.1875 L 89.746094 606.632812 L 85.847656 584.574219 L 74.777344 521.777344 L 55.765625 414.011719 L 51.824219 391.691406 C 43.605469 345.078125 66.332031 298.46875 108.136719 276.246094 L 180.960938 237.53125 C 144.621094 270.683594 113.125 318.761719 118.035156 384.210938 C 122.070312 438.085938 147.421875 454.707031 177.847656 454.1875 Z M 177.847656 454.1875 " fill-opacity="0.23" fill-rule="nonzero"/><path fill="#000000" d="M 401.015625 219.316406 L 313.046875 66.804688 L 334.09375 74.457031 L 394.011719 96.269531 L 496.847656 133.691406 L 518.148438 141.441406 C 562.628906 157.632812 591.628906 200.621094 589.972656 247.929688 L 587.085938 330.355469 C 576.546875 282.316406 550.660156 230.992188 491.515625 202.511719 C 442.84375 179.074219 415.777344 192.710938 401.015625 219.316406 Z M 401.015625 219.316406 " fill-opacity="0.23" fill-rule="nonzero"/><path fill="#ffffff" d="M 384.621094 263.277344 L 419.992188 324.539062 L 450.992188 378.222656 L 490.355469 446.410156 C 496.214844 456.554688 495.730469 467.914062 490.9375 476.976562 Z M 384.621094 263.277344 " fill-opacity="0.32" fill-rule="nonzero"/><path fill="#ffffff" d="M 352.066406 321.300781 L 356.246094 328.535156 L 376.921875 364.355469 L 398.707031 402.082031 L 426.371094 450.007812 C 429.804688 455.949219 430.136719 462.484375 428.203125 468.195312 C 424.613281 472.945312 419.121094 476.308594 412.539062 476.886719 C 411.871094 476.949219 411.195312 476.976562 410.5 476.976562 L 261.882812 476.976562 C 246.84375 476.976562 236.761719 462.679688 240.34375 449.148438 C 240.554688 448.355469 240.808594 447.5625 241.125 446.769531 L 245.472656 439.238281 L 313.566406 321.300781 C 322.117188 306.476562 343.507812 306.476562 352.066406 321.300781 Z M 352.066406 321.300781 " fill-opacity="0.18" fill-rule="nonzero"/><path fill="#ffffff" d="M 346.03125 321.292969 L 370.894531 364.355469 L 392.683594 402.082031 L 420.34375 450 C 423.777344 455.9375 424.109375 462.484375 422.175781 468.1875 C 418.59375 472.9375 413.101562 476.308594 406.511719 476.886719 C 405.84375 476.949219 405.167969 476.976562 404.472656 476.976562 L 255.847656 476.976562 C 240.808594 476.976562 230.726562 462.671875 234.308594 449.148438 C 234.519531 448.347656 234.773438 447.554688 235.089844 446.769531 L 239.4375 439.238281 L 307.527344 321.300781 C 316.089844 306.476562 337.480469 306.476562 346.03125 321.292969 Z M 346.03125 321.292969 " fill-opacity="0.32" fill-rule="nonzero"/><g mask="url(#3659591ac3)"><g transform="matrix(1, 0, 0, 1, 70, 149)"><g clip-path="url(#a700c6c61f)"><path fill="#ffffff" d="M 369.113281 400.671875 L 369.101562 400.671875 C 369.113281 400.660156 369.113281 400.660156 369.121094 400.660156 C 369.121094 400.660156 369.121094 400.660156 369.113281 400.671875 Z M 369.113281 400.671875 " fill-opacity="1" fill-rule="nonzero"/><path fill="#ffffff" d="M 261.488281 467.925781 C 261.800781 467.925781 262.109375 467.957031 262.417969 468.019531 C 262.726562 468.078125 263.023438 468.171875 263.3125 468.289062 C 263.601562 468.410156 263.875 468.558594 264.136719 468.730469 C 264.398438 468.90625 264.636719 469.101562 264.859375 469.324219 C 265.082031 469.546875 265.277344 469.785156 265.453125 470.046875 C 265.625 470.308594 265.773438 470.582031 265.894531 470.871094 C 266.011719 471.160156 266.105469 471.457031 266.164062 471.765625 C 266.226562 472.074219 266.257812 472.382812 266.257812 472.695312 C 266.257812 473.007812 266.226562 473.320312 266.164062 473.625 C 266.105469 473.933594 266.011719 474.230469 265.894531 474.519531 C 265.773438 474.808594 265.625 475.085938 265.453125 475.34375 C 265.277344 475.605469 265.082031 475.847656 264.859375 476.066406 C 264.636719 476.289062 264.398438 476.488281 264.136719 476.660156 C 263.875 476.835938 263.601562 476.980469 263.3125 477.101562 C 263.023438 477.222656 262.726562 477.3125 262.417969 477.375 C 262.109375 477.433594 261.800781 477.464844 261.488281 477.464844 C 261.175781 477.464844 260.863281 477.433594 260.558594 477.375 C 260.25 477.3125 259.953125 477.222656 259.664062 477.101562 C 259.375 476.980469 259.097656 476.835938 258.839844 476.660156 C 258.578125 476.488281 258.335938 476.289062 258.117188 476.066406 C 257.894531 475.847656 257.695312 475.605469 257.523438 475.34375 C 257.347656 475.085938 257.203125 474.808594 257.082031 474.519531 C 256.960938 474.230469 256.871094 473.933594 256.808594 473.625 C 256.75 473.320312 256.71875 473.007812 256.71875 472.695312 C 256.71875 472.382812 256.75 472.074219 256.808594 471.765625 C 256.871094 471.457031 256.960938 471.160156 257.082031 470.871094 C 257.203125 470.582031 257.347656 470.308594 257.523438 470.046875 C 257.695312 469.785156 257.894531 469.546875 258.117188 469.324219 C 258.335938 469.101562 258.578125 468.90625 258.839844 468.730469 C 259.097656 468.558594 259.375 468.410156 259.664062 468.289062 C 259.953125 468.171875 260.25 468.078125 260.558594 468.019531 C 260.863281 467.957031 261.175781 467.925781 261.488281 467.925781 Z M 261.488281 467.925781 " fill-opacity="1" fill-rule="nonzero"/><path fill="#ffffff" d="M 341.546875 417.597656 C 342.242188 417.597656 342.929688 417.667969 343.609375 417.800781 C 344.289062 417.9375 344.953125 418.136719 345.59375 418.402344 C 346.234375 418.671875 346.84375 418.996094 347.421875 419.382812 C 348 419.765625 348.535156 420.207031 349.023438 420.695312 C 349.515625 421.1875 349.953125 421.722656 350.339844 422.300781 C 350.726562 422.875 351.050781 423.484375 351.316406 424.128906 C 351.582031 424.769531 351.78125 425.429688 351.917969 426.113281 C 352.054688 426.792969 352.121094 427.480469 352.121094 428.175781 C 352.121094 428.871094 352.054688 429.558594 351.917969 430.238281 C 351.785156 430.917969 351.582031 431.582031 351.316406 432.222656 C 351.050781 432.863281 350.726562 433.472656 350.339844 434.050781 C 349.953125 434.628906 349.515625 435.164062 349.023438 435.652344 C 348.535156 436.144531 348 436.582031 347.421875 436.96875 C 346.84375 437.355469 346.234375 437.679688 345.59375 437.945312 C 344.953125 438.210938 344.289062 438.414062 343.609375 438.546875 C 342.929688 438.683594 342.242188 438.75 341.546875 438.75 C 340.851562 438.75 340.164062 438.683594 339.484375 438.546875 C 338.800781 438.414062 338.140625 438.210938 337.5 437.945312 C 336.855469 437.679688 336.246094 437.355469 335.671875 436.96875 C 335.09375 436.582031 334.558594 436.144531 334.066406 435.652344 C 333.578125 435.164062 333.136719 434.628906 332.753906 434.050781 C 332.367188 433.472656 332.039062 432.863281 331.773438 432.222656 C 331.507812 431.582031 331.308594 430.917969 331.171875 430.238281 C 331.039062 429.558594 330.96875 428.871094 330.96875 428.175781 C 330.96875 427.480469 331.039062 426.792969 331.171875 426.113281 C 331.308594 425.429688 331.507812 424.769531 331.773438 424.128906 C 332.039062 423.484375 332.367188 422.875 332.753906 422.300781 C 333.136719 421.722656 333.578125 421.1875 334.066406 420.695312 C 334.558594 420.207031 335.09375 419.765625 335.671875 419.382812 C 336.246094 418.996094 336.855469 418.671875 337.5 418.402344 C 338.140625 418.136719 338.800781 417.9375 339.484375 417.800781 C 340.164062 417.667969 340.851562 417.597656 341.546875 417.597656 Z M 341.546875 417.597656 " fill-opacity="1" fill-rule="nonzero"/><g clip-path="url(#42a26dd5b3)"><path fill="#ffffff" d="M 448.019531 458.882812 C 448.78125 458.882812 449.535156 458.957031 450.285156 459.105469 C 451.03125 459.253906 451.757812 459.472656 452.460938 459.765625 C 453.167969 460.058594 453.835938 460.414062 454.46875 460.839844 C 455.105469 461.261719 455.691406 461.746094 456.230469 462.285156 C 456.769531 462.824219 457.25 463.410156 457.675781 464.042969 C 458.097656 464.679688 458.457031 465.347656 458.75 466.050781 C 459.039062 466.757812 459.261719 467.484375 459.410156 468.230469 C 459.558594 468.980469 459.632812 469.734375 459.632812 470.496094 C 459.632812 471.257812 459.558594 472.015625 459.410156 472.761719 C 459.261719 473.511719 459.039062 474.238281 458.75 474.941406 C 458.457031 475.644531 458.097656 476.316406 457.675781 476.949219 C 457.25 477.582031 456.769531 478.167969 456.230469 478.707031 C 455.691406 479.25 455.105469 479.730469 454.46875 480.152344 C 453.835938 480.578125 453.167969 480.933594 452.460938 481.226562 C 451.757812 481.519531 451.03125 481.738281 450.285156 481.886719 C 449.535156 482.035156 448.78125 482.109375 448.019531 482.109375 C 447.253906 482.109375 446.5 482.035156 445.753906 481.886719 C 445.003906 481.738281 444.277344 481.519531 443.574219 481.226562 C 442.867188 480.933594 442.199219 480.578125 441.566406 480.152344 C 440.929688 479.730469 440.34375 479.25 439.804688 478.707031 C 439.265625 478.167969 438.785156 477.582031 438.359375 476.949219 C 437.9375 476.316406 437.578125 475.644531 437.289062 474.941406 C 436.996094 474.238281 436.777344 473.511719 436.628906 472.761719 C 436.476562 472.015625 436.402344 471.257812 436.402344 470.496094 C 436.402344 469.734375 436.476562 468.980469 436.628906 468.230469 C 436.777344 467.484375 436.996094 466.757812 437.289062 466.050781 C 437.578125 465.347656 437.9375 464.679688 438.359375 464.042969 C 438.785156 463.410156 439.265625 462.824219 439.804688 462.285156 C 440.34375 461.746094 440.929688 461.261719 441.566406 460.839844 C 442.199219 460.414062 442.867188 460.058594 443.574219 459.765625 C 444.277344 459.472656 445.003906 459.253906 445.753906 459.105469 C 446.5 458.957031 447.253906 458.882812 448.019531 458.882812 Z M 448.019531 458.882812 " fill-opacity="1" fill-rule="nonzero"/></g><path fill="#ffffff" d="M 465.042969 95.035156 C 465.398438 95.035156 465.75 95.066406 466.101562 95.136719 C 466.449219 95.207031 466.789062 95.308594 467.117188 95.445312 C 467.445312 95.582031 467.757812 95.75 468.054688 95.945312 C 468.351562 96.144531 468.625 96.371094 468.875 96.621094 C 469.128906 96.871094 469.351562 97.144531 469.550781 97.441406 C 469.746094 97.738281 469.914062 98.050781 470.050781 98.378906 C 470.1875 98.707031 470.289062 99.046875 470.359375 99.394531 C 470.429688 99.746094 470.464844 100.097656 470.464844 100.453125 C 470.464844 100.808594 470.429688 101.160156 470.359375 101.511719 C 470.289062 101.859375 470.1875 102.199219 470.050781 102.527344 C 469.914062 102.855469 469.746094 103.167969 469.550781 103.464844 C 469.351562 103.761719 469.128906 104.035156 468.875 104.285156 C 468.625 104.539062 468.351562 104.761719 468.054688 104.960938 C 467.757812 105.15625 467.445312 105.324219 467.117188 105.460938 C 466.789062 105.597656 466.449219 105.699219 466.101562 105.769531 C 465.75 105.839844 465.398438 105.875 465.042969 105.875 C 464.6875 105.875 464.335938 105.839844 463.984375 105.769531 C 463.636719 105.699219 463.296875 105.597656 462.96875 105.460938 C 462.640625 105.324219 462.328125 105.15625 462.03125 104.960938 C 461.738281 104.761719 461.460938 104.539062 461.210938 104.285156 C 460.960938 104.035156 460.734375 103.761719 460.535156 103.464844 C 460.339844 103.167969 460.171875 102.855469 460.035156 102.527344 C 459.898438 102.199219 459.796875 101.859375 459.726562 101.511719 C 459.65625 101.160156 459.625 100.808594 459.625 100.453125 C 459.625 100.097656 459.65625 99.746094 459.726562 99.394531 C 459.796875 99.046875 459.898438 98.707031 460.035156 98.378906 C 460.171875 98.050781 460.339844 97.738281 460.535156 97.441406 C 460.734375 97.144531 460.960938 96.871094 461.210938 96.621094 C 461.460938 96.371094 461.734375 96.144531 462.03125 95.945312 C 462.328125 95.75 462.640625 95.582031 462.96875 95.445312 C 463.296875 95.308594 463.636719 95.207031 463.984375 95.136719 C 464.335938 95.066406 464.6875 95.035156 465.042969 95.035156 Z M 465.042969 95.035156 " fill-opacity="1" fill-rule="nonzero"/><path fill="#ffffff" d="M 352.871094 18.496094 C 353.148438 18.496094 353.425781 18.523438 353.699219 18.578125 C 353.976562 18.628906 354.242188 18.710938 354.5 18.820312 C 354.757812 18.925781 355.003906 19.058594 355.234375 19.210938 C 355.46875 19.367188 355.683594 19.542969 355.882812 19.742188 C 356.078125 19.9375 356.253906 20.15625 356.410156 20.386719 C 356.566406 20.621094 356.695312 20.863281 356.804688 21.125 C 356.910156 21.382812 356.992188 21.648438 357.046875 21.921875 C 357.101562 22.195312 357.128906 22.472656 357.128906 22.753906 C 357.128906 23.03125 357.101562 23.308594 357.046875 23.582031 C 356.992188 23.859375 356.910156 24.125 356.804688 24.382812 C 356.695312 24.640625 356.566406 24.886719 356.410156 25.117188 C 356.253906 25.351562 356.078125 25.566406 355.882812 25.765625 C 355.683594 25.960938 355.46875 26.136719 355.234375 26.292969 C 355.003906 26.449219 354.757812 26.582031 354.5 26.6875 C 354.242188 26.792969 353.976562 26.875 353.699219 26.929688 C 353.425781 26.984375 353.148438 27.011719 352.871094 27.011719 C 352.589844 27.011719 352.3125 26.984375 352.039062 26.929688 C 351.765625 26.875 351.5 26.792969 351.238281 26.6875 C 350.980469 26.582031 350.738281 26.449219 350.503906 26.292969 C 350.269531 26.136719 350.054688 25.960938 349.859375 25.765625 C 349.660156 25.566406 349.484375 25.351562 349.328125 25.117188 C 349.171875 24.886719 349.042969 24.640625 348.933594 24.382812 C 348.828125 24.125 348.746094 23.859375 348.691406 23.582031 C 348.636719 23.308594 348.613281 23.03125 348.613281 22.753906 C 348.613281 22.472656 348.636719 22.195312 348.691406 21.921875 C 348.746094 21.648438 348.828125 21.382812 348.933594 21.125 C 349.042969 20.863281 349.171875 20.621094 349.328125 20.386719 C 349.484375 20.15625 349.660156 19.9375 349.859375 19.742188 C 350.054688 19.542969 350.269531 19.367188 350.503906 19.210938 C 350.738281 19.058594 350.980469 18.925781 351.238281 18.820312 C 351.5 18.710938 351.765625 18.628906 352.039062 18.574219 C 352.3125 18.523438 352.589844 18.496094 352.871094 18.496094 Z M 352.871094 18.496094 " fill-opacity="1" fill-rule="nonzero"/><path fill="#ffffff" d="M 452.433594 1.46875 C 453.273438 1.46875 454.105469 1.550781 454.925781 1.714844 C 455.75 1.878906 456.550781 2.121094 457.324219 2.441406 C 458.097656 2.761719 458.835938 3.15625 459.53125 3.621094 C 460.230469 4.089844 460.875 4.617188 461.46875 5.210938 C 462.0625 5.804688 462.589844 6.449219 463.058594 7.148438 C 463.523438 7.84375 463.917969 8.582031 464.238281 9.355469 C 464.558594 10.128906 464.800781 10.929688 464.964844 11.753906 C 465.128906 12.574219 465.210938 13.40625 465.210938 14.246094 C 465.210938 15.082031 465.128906 15.914062 464.964844 16.738281 C 464.800781 17.558594 464.558594 18.359375 464.238281 19.132812 C 463.917969 19.910156 463.523438 20.644531 463.058594 21.34375 C 462.589844 22.039062 462.0625 22.683594 461.46875 23.277344 C 460.875 23.871094 460.230469 24.402344 459.53125 24.867188 C 458.835938 25.332031 458.097656 25.726562 457.324219 26.046875 C 456.550781 26.367188 455.75 26.609375 454.925781 26.773438 C 454.105469 26.9375 453.273438 27.019531 452.433594 27.019531 C 451.597656 27.019531 450.765625 26.9375 449.941406 26.773438 C 449.121094 26.609375 448.320312 26.367188 447.546875 26.046875 C 446.769531 25.726562 446.035156 25.332031 445.335938 24.867188 C 444.640625 24.402344 443.996094 23.871094 443.402344 23.277344 C 442.808594 22.683594 442.277344 22.039062 441.8125 21.34375 C 441.347656 20.644531 440.953125 19.910156 440.632812 19.132812 C 440.3125 18.359375 440.070312 17.558594 439.90625 16.738281 C 439.742188 15.914062 439.660156 15.082031 439.660156 14.246094 C 439.660156 13.40625 439.742188 12.574219 439.90625 11.753906 C 440.070312 10.929688 440.3125 10.128906 440.632812 9.355469 C 440.953125 8.582031 441.347656 7.84375 441.8125 7.148438 C 442.277344 6.449219 442.808594 5.804688 443.402344 5.210938 C 443.996094 4.617188 444.640625 4.089844 445.335938 3.621094 C 446.035156 3.15625 446.769531 2.761719 447.546875 2.441406 C 448.320312 2.121094 449.121094 1.878906 449.941406 1.714844 C 450.765625 1.550781 451.597656 1.46875 452.433594 1.46875 Z M 452.433594 1.46875 " fill-opacity="1" fill-rule="nonzero"/><path fill="#ffffff" d="M 479.140625 205.738281 C 479.511719 205.738281 479.882812 205.773438 480.25 205.847656 C 480.617188 205.917969 480.972656 206.027344 481.316406 206.171875 C 481.664062 206.3125 481.992188 206.488281 482.300781 206.695312 C 482.613281 206.90625 482.898438 207.140625 483.164062 207.40625 C 483.429688 207.667969 483.664062 207.957031 483.871094 208.265625 C 484.078125 208.578125 484.253906 208.90625 484.398438 209.25 C 484.542969 209.597656 484.648438 209.953125 484.722656 210.320312 C 484.796875 210.6875 484.832031 211.054688 484.832031 211.429688 C 484.832031 211.804688 484.796875 212.175781 484.722656 212.539062 C 484.648438 212.90625 484.542969 213.261719 484.398438 213.609375 C 484.253906 213.953125 484.078125 214.28125 483.871094 214.59375 C 483.664062 214.902344 483.429688 215.191406 483.164062 215.457031 C 482.898438 215.71875 482.613281 215.957031 482.300781 216.164062 C 481.992188 216.371094 481.664062 216.546875 481.316406 216.691406 C 480.972656 216.832031 480.617188 216.941406 480.25 217.011719 C 479.882812 217.085938 479.511719 217.121094 479.140625 217.121094 C 478.765625 217.121094 478.394531 217.085938 478.027344 217.011719 C 477.660156 216.941406 477.304688 216.832031 476.960938 216.691406 C 476.613281 216.546875 476.285156 216.371094 475.976562 216.164062 C 475.664062 215.957031 475.378906 215.71875 475.113281 215.457031 C 474.847656 215.191406 474.613281 214.902344 474.40625 214.59375 C 474.199219 214.28125 474.023438 213.953125 473.878906 213.609375 C 473.738281 213.261719 473.628906 212.90625 473.554688 212.539062 C 473.484375 212.175781 473.445312 211.804688 473.445312 211.429688 C 473.445312 211.054688 473.484375 210.6875 473.554688 210.320312 C 473.628906 209.953125 473.738281 209.597656 473.878906 209.25 C 474.023438 208.90625 474.199219 208.578125 474.40625 208.265625 C 474.613281 207.957031 474.847656 207.667969 475.113281 207.40625 C 475.378906 207.140625 475.664062 206.90625 475.976562 206.695312 C 476.285156 206.488281 476.613281 206.3125 476.960938 206.171875 C 477.304688 206.027344 477.660156 205.917969 478.027344 205.847656 C 478.394531 205.773438 478.765625 205.738281 479.140625 205.738281 Z M 479.140625 205.738281 " fill-opacity="1" fill-rule="nonzero"/><path fill="#ffffff" d="M 6.589844 286.789062 C 6.917969 286.789062 7.242188 286.820312 7.558594 286.886719 C 7.878906 286.949219 8.191406 287.042969 8.492188 287.167969 C 8.792969 287.292969 9.078125 287.445312 9.347656 287.625 C 9.621094 287.808594 9.871094 288.011719 10.101562 288.242188 C 10.332031 288.472656 10.535156 288.726562 10.71875 288.996094 C 10.898438 289.265625 11.050781 289.550781 11.175781 289.855469 C 11.300781 290.15625 11.394531 290.464844 11.457031 290.785156 C 11.523438 291.105469 11.554688 291.425781 11.554688 291.753906 C 11.554688 292.078125 11.523438 292.402344 11.457031 292.722656 C 11.394531 293.039062 11.300781 293.351562 11.175781 293.652344 C 11.050781 293.953125 10.898438 294.238281 10.71875 294.507812 C 10.535156 294.78125 10.332031 295.03125 10.101562 295.261719 C 9.871094 295.492188 9.621094 295.699219 9.347656 295.878906 C 9.078125 296.058594 8.792969 296.210938 8.492188 296.335938 C 8.191406 296.460938 7.878906 296.554688 7.558594 296.621094 C 7.242188 296.683594 6.917969 296.714844 6.589844 296.714844 C 6.265625 296.714844 5.941406 296.683594 5.625 296.621094 C 5.304688 296.554688 4.992188 296.460938 4.691406 296.335938 C 4.390625 296.210938 4.105469 296.058594 3.835938 295.878906 C 3.5625 295.699219 3.3125 295.492188 3.082031 295.261719 C 2.851562 295.03125 2.648438 294.78125 2.464844 294.507812 C 2.285156 294.238281 2.132812 293.953125 2.007812 293.652344 C 1.882812 293.351562 1.789062 293.039062 1.726562 292.722656 C 1.660156 292.402344 1.628906 292.078125 1.628906 291.753906 C 1.628906 291.425781 1.660156 291.105469 1.726562 290.785156 C 1.789062 290.464844 1.882812 290.15625 2.007812 289.855469 C 2.132812 289.550781 2.285156 289.265625 2.464844 288.996094 C 2.648438 288.726562 2.851562 288.472656 3.082031 288.242188 C 3.3125 288.011719 3.5625 287.808594 3.835938 287.625 C 4.105469 287.445312 4.390625 287.292969 4.691406 287.167969 C 4.992188 287.042969 5.304688 286.949219 5.625 286.886719 C 5.941406 286.820312 6.265625 286.789062 6.589844 286.789062 Z M 6.589844 286.789062 " fill-opacity="1" fill-rule="nonzero"/><path fill="#ffffff" d="M 97.957031 176.375 C 98.335938 176.375 98.710938 176.414062 99.085938 176.488281 C 99.457031 176.5625 99.816406 176.671875 100.167969 176.816406 C 100.519531 176.960938 100.851562 177.140625 101.167969 177.351562 C 101.484375 177.5625 101.777344 177.800781 102.042969 178.070312 C 102.3125 178.339844 102.550781 178.628906 102.761719 178.945312 C 102.972656 179.261719 103.152344 179.59375 103.296875 179.945312 C 103.441406 180.296875 103.550781 180.65625 103.625 181.03125 C 103.699219 181.402344 103.738281 181.777344 103.738281 182.15625 C 103.738281 182.535156 103.699219 182.914062 103.625 183.285156 C 103.550781 183.65625 103.441406 184.019531 103.296875 184.371094 C 103.152344 184.71875 102.972656 185.054688 102.761719 185.367188 C 102.550781 185.683594 102.3125 185.976562 102.042969 186.246094 C 101.777344 186.511719 101.484375 186.753906 101.167969 186.964844 C 100.851562 187.175781 100.519531 187.351562 100.167969 187.496094 C 99.816406 187.644531 99.457031 187.753906 99.085938 187.828125 C 98.710938 187.902344 98.335938 187.9375 97.957031 187.9375 C 97.578125 187.9375 97.199219 187.902344 96.828125 187.828125 C 96.457031 187.753906 96.09375 187.644531 95.746094 187.496094 C 95.394531 187.351562 95.058594 187.175781 94.746094 186.964844 C 94.429688 186.753906 94.136719 186.511719 93.867188 186.246094 C 93.601562 185.976562 93.359375 185.683594 93.148438 185.367188 C 92.9375 185.054688 92.761719 184.71875 92.617188 184.371094 C 92.46875 184.019531 92.359375 183.65625 92.285156 183.285156 C 92.210938 182.914062 92.175781 182.535156 92.175781 182.15625 C 92.175781 181.777344 92.210938 181.402344 92.285156 181.03125 C 92.359375 180.65625 92.46875 180.296875 92.617188 179.945312 C 92.761719 179.59375 92.9375 179.261719 93.148438 178.945312 C 93.359375 178.628906 93.601562 178.339844 93.867188 178.070312 C 94.136719 177.800781 94.429688 177.5625 94.746094 177.351562 C 95.058594 177.140625 95.394531 176.960938 95.746094 176.816406 C 96.09375 176.671875 96.457031 176.5625 96.828125 176.488281 C 97.199219 176.414062 97.578125 176.375 97.957031 176.375 Z M 97.957031 176.375 " fill-opacity="1" fill-rule="nonzero"/><path fill="#ffffff" d="M 183.222656 80.710938 C 183.507812 80.710938 183.777344 80.761719 184.039062 80.871094 C 184.300781 80.980469 184.53125 81.132812 184.730469 81.332031 C 184.929688 81.53125 185.082031 81.761719 185.191406 82.023438 C 185.300781 82.285156 185.351562 82.554688 185.351562 82.839844 C 185.351562 83.121094 185.300781 83.390625 185.191406 83.652344 C 185.082031 83.914062 184.929688 84.144531 184.730469 84.34375 C 184.53125 84.542969 184.300781 84.699219 184.039062 84.804688 C 183.777344 84.914062 183.507812 84.96875 183.222656 84.96875 C 182.941406 84.96875 182.667969 84.914062 182.410156 84.804688 C 182.148438 84.699219 181.917969 84.542969 181.71875 84.34375 C 181.519531 84.144531 181.363281 83.914062 181.257812 83.652344 C 181.148438 83.390625 181.09375 83.121094 181.09375 82.839844 C 181.09375 82.554688 181.148438 82.285156 181.257812 82.023438 C 181.363281 81.761719 181.519531 81.53125 181.71875 81.332031 C 181.917969 81.132812 182.148438 80.980469 182.410156 80.871094 C 182.667969 80.761719 182.941406 80.710938 183.222656 80.710938 Z M 183.222656 80.710938 " fill-opacity="1" fill-rule="nonzero"/><path fill="#ffffff" d="M 64.398438 285.953125 C 65.097656 285.953125 65.789062 286.023438 66.472656 286.160156 C 67.160156 286.296875 67.824219 286.496094 68.46875 286.765625 C 69.113281 287.03125 69.726562 287.359375 70.308594 287.746094 C 70.890625 288.136719 71.425781 288.578125 71.921875 289.070312 C 72.414062 289.5625 72.855469 290.101562 73.242188 290.683594 C 73.632812 291.261719 73.960938 291.875 74.226562 292.519531 C 74.492188 293.167969 74.695312 293.832031 74.832031 294.515625 C 74.96875 295.203125 75.035156 295.894531 75.035156 296.59375 C 75.035156 297.289062 74.96875 297.980469 74.832031 298.667969 C 74.695312 299.351562 74.492188 300.015625 74.226562 300.664062 C 73.960938 301.308594 73.632812 301.921875 73.242188 302.5 C 72.855469 303.082031 72.414062 303.621094 71.921875 304.113281 C 71.425781 304.609375 70.890625 305.046875 70.308594 305.4375 C 69.726562 305.824219 69.113281 306.152344 68.46875 306.417969 C 67.824219 306.6875 67.160156 306.890625 66.472656 307.023438 C 65.789062 307.160156 65.097656 307.230469 64.398438 307.230469 C 63.699219 307.230469 63.007812 307.160156 62.324219 307.023438 C 61.636719 306.890625 60.972656 306.6875 60.328125 306.417969 C 59.683594 306.152344 59.070312 305.824219 58.488281 305.4375 C 57.90625 305.046875 57.371094 304.609375 56.875 304.113281 C 56.382812 303.621094 55.941406 303.082031 55.554688 302.5 C 55.164062 301.921875 54.839844 301.308594 54.570312 300.664062 C 54.304688 300.015625 54.101562 299.351562 53.964844 298.667969 C 53.828125 297.980469 53.761719 297.289062 53.761719 296.59375 C 53.761719 295.894531 53.828125 295.203125 53.964844 294.515625 C 54.101562 293.832031 54.304688 293.167969 54.570312 292.519531 C 54.839844 291.875 55.164062 291.261719 55.554688 290.683594 C 55.941406 290.101562 56.382812 289.5625 56.875 289.070312 C 57.371094 288.574219 57.90625 288.136719 58.488281 287.746094 C 59.070312 287.359375 59.683594 287.03125 60.328125 286.765625 C 60.972656 286.496094 61.636719 286.296875 62.324219 286.160156 C 63.007812 286.023438 63.699219 285.953125 64.398438 285.953125 Z M 64.398438 285.953125 " fill-opacity="1" fill-rule="nonzero"/><path fill="#ffffff" d="M 131.867188 205.402344 C 132.257812 205.402344 132.644531 205.441406 133.03125 205.519531 C 133.414062 205.59375 133.789062 205.707031 134.148438 205.855469 C 134.511719 206.007812 134.855469 206.191406 135.179688 206.410156 C 135.507812 206.625 135.808594 206.875 136.085938 207.148438 C 136.363281 207.425781 136.609375 207.730469 136.828125 208.054688 C 137.042969 208.378906 137.226562 208.722656 137.378906 209.085938 C 137.527344 209.449219 137.640625 209.820312 137.71875 210.203125 C 137.792969 210.589844 137.832031 210.976562 137.832031 211.367188 C 137.832031 211.761719 137.792969 212.148438 137.71875 212.53125 C 137.640625 212.917969 137.527344 213.289062 137.378906 213.652344 C 137.226562 214.011719 137.042969 214.355469 136.828125 214.683594 C 136.609375 215.007812 136.363281 215.308594 136.085938 215.585938 C 135.808594 215.863281 135.507812 216.109375 135.179688 216.328125 C 134.855469 216.546875 134.511719 216.730469 134.148438 216.878906 C 133.789062 217.03125 133.414062 217.144531 133.03125 217.21875 C 132.644531 217.296875 132.257812 217.335938 131.867188 217.335938 C 131.476562 217.335938 131.085938 217.296875 130.703125 217.21875 C 130.320312 217.144531 129.945312 217.03125 129.582031 216.878906 C 129.222656 216.730469 128.878906 216.546875 128.550781 216.328125 C 128.226562 216.109375 127.925781 215.863281 127.648438 215.585938 C 127.371094 215.308594 127.125 215.007812 126.90625 214.683594 C 126.6875 214.355469 126.503906 214.011719 126.355469 213.652344 C 126.207031 213.289062 126.09375 212.917969 126.015625 212.53125 C 125.9375 212.148438 125.902344 211.761719 125.902344 211.367188 C 125.902344 210.976562 125.9375 210.589844 126.015625 210.203125 C 126.09375 209.820312 126.207031 209.449219 126.355469 209.085938 C 126.503906 208.722656 126.6875 208.378906 126.90625 208.054688 C 127.125 207.730469 127.371094 207.425781 127.648438 207.148438 C 127.925781 206.875 128.226562 206.625 128.550781 206.410156 C 128.878906 206.191406 129.222656 206.007812 129.582031 205.855469 C 129.945312 205.707031 130.320312 205.59375 130.703125 205.519531 C 131.085938 205.441406 131.476562 205.402344 131.867188 205.402344 Z M 131.867188 205.402344 " fill-opacity="1" fill-rule="nonzero"/></g></g></g><g mask="url(#2b7c5e7599)"><g transform="matrix(1, 0, 0, 1, 312, 378)"><g clip-path="url(#e257dd9ac6)"><path fill="#ffffff" d="M 1.195312 98.976562 L 98.5 98.976562 C 99.195312 98.976562 99.871094 98.949219 100.539062 98.886719 C 107.121094 98.308594 112.613281 94.945312 116.203125 90.195312 C 118.136719 84.484375 117.804688 77.949219 114.371094 72.007812 L 86.707031 24.082031 L 73.539062 1.269531 C 102.257812 67.132812 46.9375 93.355469 1.195312 98.976562 Z M 1.195312 98.976562 " fill-opacity="0.32" fill-rule="nonzero"/></g></g></g><path fill="#ffffff" d="M 384.632812 263.300781 L 420 324.539062 L 450.992188 378.222656 L 490.355469 446.410156 C 495.246094 454.867188 495.714844 464.175781 492.960938 472.285156 C 487.855469 479.042969 480.042969 483.839844 470.671875 484.667969 C 469.722656 484.746094 468.753906 484.789062 467.769531 484.789062 L 452.390625 484.789062 C 460.652344 473.402344 467.355469 457.644531 461.804688 439.660156 C 450.59375 403.332031 385.652344 265.449219 384.632812 263.300781 Z M 384.632812 263.300781 " fill-opacity="0.32" fill-rule="nonzero"/><g clip-path="url(#44546f959a)"><g clip-path="url(#afbebd6ff9)"><path fill="#03ab86" d="M 354.945312 249.832031 L 362.355469 249.832031 L 362.355469 257.238281 L 354.945312 257.238281 Z M 354.945312 249.832031 " fill-opacity="1" fill-rule="nonzero"/></g></g></svg>